<svg width="243" height="447" viewBox="0 0 243 447" fill="none" xmlns="http://www.w3.org/2000/svg">
<circle cx="121.615" cy="110.828" r="93.6148" fill="#142B73"/>
<g filter="url(#filter0_d_1_2517)">
<circle cx="121.615" cy="110.828" r="81.3837" fill="#5A6A9D"/>
</g>
<circle cx="122" cy="110" r="109.25" stroke="#112667" stroke-opacity="0.968627" stroke-width="1.5"/>
<path fill-rule="evenodd" clip-rule="evenodd" d="M243 137.783C243 135.332 240.239 135.457 239.668 137.841C226.888 191.255 178.831 230.964 121.5 230.964C64.1687 230.964 16.1118 191.255 3.33167 137.841C2.76132 135.457 0 135.332 0 137.783V384.614C0 396.212 9.40202 405.614 21 405.614H222C233.598 405.614 243 396.212 243 384.614V137.783Z" fill="#142B73"/>
<g filter="url(#filter1_d_1_2517)">
<circle cx="121.5" cy="405.5" r="26.5" fill="#5A6A9D"/>
</g>
<g filter="url(#filter2_d_1_2517)">
<circle cx="121.5" cy="405.5" r="33" stroke="#142B73" shape-rendering="crispEdges"/>
</g>
<path d="M74.6562 88.9648H85.9844V103.77C84.487 104.264 82.931 104.661 81.3164 104.961C79.7018 105.247 77.8724 105.391 75.8281 105.391C72.9896 105.391 70.5807 104.831 68.6016 103.711C66.6224 102.591 65.1185 100.938 64.0898 98.75C63.0612 96.5625 62.5469 93.8737 62.5469 90.6836C62.5469 87.6888 63.1198 85.0977 64.2656 82.9102C65.4245 80.7227 67.1107 79.0299 69.3242 77.832C71.5508 76.6341 74.2656 76.0352 77.4688 76.0352C78.9792 76.0352 80.4701 76.1979 81.9414 76.5234C83.4128 76.849 84.7474 77.2721 85.9453 77.793L83.9336 82.6367C83.0612 82.194 82.0651 81.8229 80.9453 81.5234C79.8255 81.224 78.6536 81.0742 77.4297 81.0742C75.6719 81.0742 74.1419 81.4779 72.8398 82.2852C71.5508 83.0924 70.5482 84.2253 69.832 85.6836C69.1289 87.1289 68.7773 88.8346 68.7773 90.8008C68.7773 92.6628 69.0312 94.3164 69.5391 95.7617C70.0469 97.194 70.8477 98.3203 71.9414 99.1406C73.0352 99.9479 74.4609 100.352 76.2188 100.352C77.0781 100.352 77.8008 100.312 78.3867 100.234C78.9857 100.143 79.5456 100.052 80.0664 99.9609V94.0039H74.6562V88.9648ZM98.2891 83.1641V105H92.332V83.1641H98.2891ZM95.3203 74.6094C96.2057 74.6094 96.9674 74.8177 97.6055 75.2344C98.2435 75.638 98.5625 76.3997 98.5625 77.5195C98.5625 78.6263 98.2435 79.3945 97.6055 79.8242C96.9674 80.2409 96.2057 80.4492 95.3203 80.4492C94.4219 80.4492 93.6536 80.2409 93.0156 79.8242C92.3906 79.3945 92.0781 78.6263 92.0781 77.5195C92.0781 76.3997 92.3906 75.638 93.0156 75.2344C93.6536 74.8177 94.4219 74.6094 95.3203 74.6094ZM113.504 82.7148C116.434 82.7148 118.68 83.3529 120.242 84.6289C121.805 85.9049 122.586 87.8451 122.586 90.4492V105H118.426L117.273 102.031H117.117C116.492 102.812 115.854 103.451 115.203 103.945C114.552 104.44 113.803 104.805 112.957 105.039C112.111 105.273 111.082 105.391 109.871 105.391C108.582 105.391 107.423 105.143 106.395 104.648C105.379 104.154 104.578 103.398 103.992 102.383C103.406 101.354 103.113 100.052 103.113 98.4766C103.113 96.1589 103.927 94.4531 105.555 93.3594C107.182 92.2526 109.624 91.6406 112.879 91.5234L116.668 91.4062V90.4492C116.668 89.3034 116.368 88.4635 115.77 87.9297C115.171 87.3958 114.337 87.1289 113.27 87.1289C112.215 87.1289 111.18 87.2786 110.164 87.5781C109.148 87.8776 108.133 88.2552 107.117 88.7109L105.145 84.6875C106.303 84.0755 107.599 83.5938 109.031 83.2422C110.477 82.8906 111.967 82.7148 113.504 82.7148ZM116.668 94.8828L114.363 94.9609C112.436 95.013 111.095 95.3581 110.34 95.9961C109.598 96.6341 109.227 97.474 109.227 98.5156C109.227 99.4271 109.493 100.078 110.027 100.469C110.561 100.846 111.258 101.035 112.117 101.035C113.393 101.035 114.467 100.658 115.34 99.9023C116.225 99.1471 116.668 98.0729 116.668 96.6797V94.8828ZM121.18 74.3555V74.7656C120.802 75.1302 120.307 75.5794 119.695 76.1133C119.083 76.6471 118.426 77.207 117.723 77.793C117.02 78.3659 116.329 78.9193 115.652 79.4531C114.975 79.974 114.383 80.4102 113.875 80.7617H109.91V80.2344C110.34 79.7396 110.835 79.1536 111.395 78.4766C111.967 77.7865 112.534 77.0768 113.094 76.3477C113.654 75.6185 114.122 74.9544 114.5 74.3555H121.18ZM148.328 100.645C148.979 100.645 149.611 100.579 150.223 100.449C150.848 100.319 151.466 100.156 152.078 99.9609V104.395C151.44 104.681 150.646 104.915 149.695 105.098C148.758 105.293 147.729 105.391 146.609 105.391C145.307 105.391 144.135 105.182 143.094 104.766C142.065 104.336 141.251 103.6 140.652 102.559C140.066 101.504 139.773 100.039 139.773 98.1641V87.6367H136.922V85.1172L140.203 83.125L141.922 78.5156H145.73V83.1641H151.844V87.6367H145.73V98.1641C145.73 98.9974 145.965 99.6224 146.434 100.039C146.915 100.443 147.547 100.645 148.328 100.645ZM168.699 82.7539C168.999 82.7539 169.344 82.7734 169.734 82.8125C170.138 82.8385 170.464 82.8776 170.711 82.9297L170.262 88.5156C170.066 88.4505 169.786 88.4049 169.422 88.3789C169.07 88.3398 168.764 88.3203 168.504 88.3203C167.736 88.3203 166.987 88.418 166.258 88.6133C165.542 88.8086 164.897 89.1276 164.324 89.5703C163.751 90 163.296 90.5729 162.957 91.2891C162.632 91.9922 162.469 92.8581 162.469 93.8867V105H156.512V83.1641H161.023L161.902 86.8359H162.195C162.625 86.0938 163.159 85.4167 163.797 84.8047C164.448 84.1797 165.184 83.6849 166.004 83.3203C166.837 82.9427 167.736 82.7539 168.699 82.7539ZM180.633 83.1641V105H174.676V83.1641H180.633ZM177.664 74.6094C178.549 74.6094 179.311 74.8177 179.949 75.2344C180.587 75.638 180.906 76.3997 180.906 77.5195C180.906 78.6263 180.587 79.3945 179.949 79.8242C179.311 80.2409 178.549 80.4492 177.664 80.4492C176.766 80.4492 175.997 80.2409 175.359 79.8242C174.734 79.3945 174.422 78.6263 174.422 77.5195C174.422 76.3997 174.734 75.638 175.359 75.2344C175.997 74.8177 176.766 74.6094 177.664 74.6094ZM177.703 113.398C176.805 113.398 176.036 113.184 175.398 112.754C174.773 112.337 174.461 111.582 174.461 110.488C174.461 109.368 174.773 108.6 175.398 108.184C176.036 107.767 176.805 107.559 177.703 107.559C178.589 107.559 179.35 107.767 179.988 108.184C180.626 108.6 180.945 109.368 180.945 110.488C180.945 111.582 180.626 112.337 179.988 112.754C179.35 113.184 178.589 113.398 177.703 113.398ZM120.516 144.723C120.516 147.027 120.333 149.085 119.969 150.895C119.617 152.704 119.044 154.241 118.25 155.504C117.469 156.767 116.44 157.73 115.164 158.395C113.888 159.059 112.339 159.391 110.516 159.391C108.224 159.391 106.342 158.811 104.871 157.652C103.4 156.48 102.312 154.801 101.609 152.613C100.906 150.413 100.555 147.783 100.555 144.723C100.555 141.637 100.874 139 101.512 136.812C102.163 134.612 103.217 132.926 104.676 131.754C106.134 130.582 108.081 129.996 110.516 129.996C112.794 129.996 114.669 130.582 116.141 131.754C117.625 132.913 118.725 134.592 119.441 136.793C120.158 138.98 120.516 141.624 120.516 144.723ZM106.551 144.723C106.551 146.897 106.668 148.714 106.902 150.172C107.15 151.617 107.56 152.704 108.133 153.434C108.706 154.163 109.5 154.527 110.516 154.527C111.518 154.527 112.306 154.169 112.879 153.453C113.465 152.724 113.882 151.637 114.129 150.191C114.376 148.733 114.5 146.91 114.5 144.723C114.5 142.548 114.376 140.732 114.129 139.273C113.882 137.815 113.465 136.721 112.879 135.992C112.306 135.25 111.518 134.879 110.516 134.879C109.5 134.879 108.706 135.25 108.133 135.992C107.56 136.721 107.15 137.815 106.902 139.273C106.668 140.732 106.551 142.548 106.551 144.723ZM143.562 159H123.602V154.801L130.77 147.555C132.215 146.07 133.374 144.833 134.246 143.844C135.132 142.841 135.77 141.93 136.16 141.109C136.564 140.289 136.766 139.41 136.766 138.473C136.766 137.34 136.447 136.493 135.809 135.934C135.184 135.361 134.344 135.074 133.289 135.074C132.182 135.074 131.108 135.328 130.066 135.836C129.025 136.344 127.938 137.066 126.805 138.004L123.523 134.117C124.344 133.414 125.21 132.75 126.121 132.125C127.046 131.5 128.113 130.999 129.324 130.621C130.548 130.23 132.013 130.035 133.719 130.035C135.594 130.035 137.202 130.374 138.543 131.051C139.897 131.728 140.939 132.652 141.668 133.824C142.397 134.983 142.762 136.298 142.762 137.77C142.762 139.345 142.449 140.784 141.824 142.086C141.199 143.388 140.288 144.677 139.09 145.953C137.905 147.229 136.473 148.642 134.793 150.191L131.121 153.648V153.922H143.562V159Z" fill="white"/>
<path d="M25.5117 258V243.723H27.1719V256.516H33.5098V258H25.5117ZM44.9453 252.629C44.9453 253.508 44.8314 254.292 44.6035 254.982C44.3757 255.673 44.0469 256.255 43.6172 256.73C43.1875 257.206 42.6667 257.57 42.0547 257.824C41.4492 258.072 40.7624 258.195 39.9941 258.195C39.278 258.195 38.6204 258.072 38.0215 257.824C37.429 257.57 36.9147 257.206 36.4785 256.73C36.0488 256.255 35.7135 255.673 35.4727 254.982C35.2383 254.292 35.1211 253.508 35.1211 252.629C35.1211 251.457 35.3197 250.461 35.7168 249.641C36.1139 248.814 36.6803 248.186 37.416 247.756C38.1582 247.32 39.0404 247.102 40.0625 247.102C41.0391 247.102 41.8919 247.32 42.6211 247.756C43.3568 248.192 43.9264 248.824 44.3301 249.65C44.7402 250.471 44.9453 251.464 44.9453 252.629ZM36.8008 252.629C36.8008 253.488 36.9147 254.234 37.1426 254.865C37.3704 255.497 37.722 255.985 38.1973 256.33C38.6725 256.675 39.2845 256.848 40.0332 256.848C40.7754 256.848 41.3841 256.675 41.8594 256.33C42.3411 255.985 42.696 255.497 42.9238 254.865C43.1517 254.234 43.2656 253.488 43.2656 252.629C43.2656 251.776 43.1517 251.04 42.9238 250.422C42.696 249.797 42.3444 249.315 41.8691 248.977C41.3939 248.638 40.7786 248.469 40.0234 248.469C38.9102 248.469 38.0931 248.837 37.5723 249.572C37.0579 250.308 36.8008 251.327 36.8008 252.629ZM52.6113 247.102C52.8262 247.102 53.0508 247.115 53.2852 247.141C53.5195 247.16 53.7279 247.189 53.9102 247.229L53.7051 248.732C53.5293 248.687 53.334 248.651 53.1191 248.625C52.9043 248.599 52.7025 248.586 52.5137 248.586C52.084 248.586 51.6771 248.674 51.293 248.85C50.9154 249.019 50.5833 249.266 50.2969 249.592C50.0104 249.911 49.7858 250.298 49.623 250.754C49.4603 251.203 49.3789 251.704 49.3789 252.258V258H47.748V247.297H49.0957L49.2715 249.27H49.3398C49.5612 248.872 49.8281 248.511 50.1406 248.186C50.4531 247.854 50.8145 247.59 51.2246 247.395C51.6413 247.199 52.1035 247.102 52.6113 247.102ZM60.0527 247.102C60.9642 247.102 61.7454 247.303 62.3965 247.707C63.0475 248.111 63.5456 248.677 63.8906 249.406C64.2357 250.129 64.4082 250.975 64.4082 251.945V252.951H57.0156C57.0352 254.208 57.3477 255.165 57.9531 255.822C58.5586 256.48 59.4115 256.809 60.5117 256.809C61.1888 256.809 61.7878 256.747 62.3086 256.623C62.8294 256.499 63.3698 256.317 63.9297 256.076V257.502C63.3893 257.743 62.8522 257.919 62.3184 258.029C61.791 258.14 61.166 258.195 60.4434 258.195C59.4147 258.195 58.5163 257.987 57.748 257.57C56.9863 257.147 56.3939 256.529 55.9707 255.715C55.5475 254.901 55.3359 253.905 55.3359 252.727C55.3359 251.574 55.528 250.578 55.9121 249.738C56.3027 248.892 56.8496 248.241 57.5527 247.785C58.2624 247.329 59.0957 247.102 60.0527 247.102ZM60.0332 248.43C59.1673 248.43 58.4772 248.713 57.9629 249.279C57.4486 249.846 57.1426 250.637 57.0449 251.652H62.709C62.7025 251.014 62.6016 250.454 62.4062 249.973C62.2174 249.484 61.9277 249.107 61.5371 248.84C61.1465 248.566 60.6452 248.43 60.0332 248.43ZM78.7832 247.102C79.9616 247.102 80.8503 247.411 81.4492 248.029C82.0482 248.641 82.3477 249.628 82.3477 250.988V258H80.7461V251.066C80.7461 250.201 80.5573 249.553 80.1797 249.123C79.8086 248.687 79.2552 248.469 78.5195 248.469C77.4844 248.469 76.7324 248.768 76.2637 249.367C75.7949 249.966 75.5605 250.848 75.5605 252.014V258H73.9492V251.066C73.9492 250.487 73.8646 250.005 73.6953 249.621C73.5326 249.237 73.2852 248.951 72.9531 248.762C72.6276 248.566 72.2142 248.469 71.7129 248.469C71.0033 248.469 70.4336 248.615 70.0039 248.908C69.5742 249.201 69.2617 249.637 69.0664 250.217C68.8776 250.79 68.7832 251.496 68.7832 252.336V258H67.1621V247.297H68.4707L68.7148 248.811H68.8027C69.0176 248.439 69.2878 248.127 69.6133 247.873C69.9388 247.619 70.3034 247.427 70.707 247.297C71.1107 247.167 71.5404 247.102 71.9961 247.102C72.8099 247.102 73.4902 247.255 74.0371 247.561C74.5905 247.86 74.9909 248.319 75.2383 248.938H75.3262C75.6777 248.319 76.1595 247.86 76.7715 247.561C77.3835 247.255 78.054 247.102 78.7832 247.102ZM92.4941 247.297V258H90.873V247.297H92.4941ZM91.7031 243.293C91.9701 243.293 92.1979 243.381 92.3867 243.557C92.582 243.726 92.6797 243.993 92.6797 244.357C92.6797 244.715 92.582 244.982 92.3867 245.158C92.1979 245.334 91.9701 245.422 91.7031 245.422C91.4232 245.422 91.1888 245.334 91 245.158C90.8177 244.982 90.7266 244.715 90.7266 244.357C90.7266 243.993 90.8177 243.726 91 243.557C91.1888 243.381 91.4232 243.293 91.7031 243.293ZM100.961 247.102C102.296 247.102 103.36 247.561 104.154 248.479C104.949 249.396 105.346 250.777 105.346 252.619C105.346 253.837 105.163 254.859 104.799 255.686C104.434 256.512 103.92 257.137 103.256 257.561C102.598 257.984 101.82 258.195 100.922 258.195C100.355 258.195 99.8574 258.12 99.4277 257.971C98.998 257.821 98.6302 257.619 98.3242 257.365C98.0182 257.111 97.7643 256.835 97.5625 256.535H97.4453C97.4648 256.789 97.4876 257.095 97.5137 257.453C97.5462 257.811 97.5625 258.124 97.5625 258.391V262.785H95.9316V247.297H97.2695L97.4844 248.879H97.5625C97.7708 248.553 98.0247 248.257 98.3242 247.99C98.6237 247.717 98.9883 247.502 99.418 247.346C99.8542 247.183 100.368 247.102 100.961 247.102ZM100.678 248.469C99.9355 248.469 99.3366 248.612 98.8809 248.898C98.4316 249.185 98.1029 249.615 97.8945 250.188C97.6862 250.754 97.5755 251.467 97.5625 252.326V252.639C97.5625 253.544 97.6602 254.309 97.8555 254.934C98.0573 255.559 98.3861 256.034 98.8418 256.359C99.304 256.685 99.9225 256.848 100.697 256.848C101.361 256.848 101.915 256.669 102.357 256.311C102.8 255.952 103.129 255.454 103.344 254.816C103.565 254.172 103.676 253.433 103.676 252.6C103.676 251.337 103.428 250.334 102.934 249.592C102.445 248.843 101.693 248.469 100.678 248.469ZM115.102 255.07C115.102 255.754 114.929 256.33 114.584 256.799C114.245 257.261 113.757 257.609 113.119 257.844C112.488 258.078 111.732 258.195 110.854 258.195C110.105 258.195 109.457 258.137 108.91 258.02C108.363 257.902 107.885 257.736 107.475 257.521V256.027C107.911 256.242 108.432 256.438 109.037 256.613C109.643 256.789 110.261 256.877 110.893 256.877C111.817 256.877 112.488 256.727 112.904 256.428C113.321 256.128 113.529 255.721 113.529 255.207C113.529 254.914 113.445 254.657 113.275 254.436C113.113 254.208 112.836 253.99 112.445 253.781C112.055 253.566 111.514 253.332 110.824 253.078C110.141 252.818 109.548 252.561 109.047 252.307C108.552 252.046 108.168 251.73 107.895 251.359C107.628 250.988 107.494 250.507 107.494 249.914C107.494 249.009 107.859 248.316 108.588 247.834C109.324 247.346 110.287 247.102 111.479 247.102C112.123 247.102 112.725 247.167 113.285 247.297C113.852 247.421 114.379 247.59 114.867 247.805L114.32 249.104C113.878 248.915 113.406 248.755 112.904 248.625C112.403 248.495 111.892 248.43 111.371 248.43C110.622 248.43 110.046 248.553 109.643 248.801C109.245 249.048 109.047 249.387 109.047 249.816C109.047 250.148 109.138 250.422 109.32 250.637C109.509 250.852 109.809 251.053 110.219 251.242C110.629 251.431 111.169 251.652 111.84 251.906C112.51 252.154 113.09 252.411 113.578 252.678C114.066 252.938 114.441 253.257 114.701 253.635C114.968 254.006 115.102 254.484 115.102 255.07ZM126.547 247.297V258H125.219L124.984 256.496H124.896C124.675 256.867 124.389 257.18 124.037 257.434C123.686 257.688 123.288 257.876 122.846 258C122.41 258.13 121.944 258.195 121.449 258.195C120.603 258.195 119.893 258.059 119.32 257.785C118.747 257.512 118.314 257.089 118.021 256.516C117.735 255.943 117.592 255.207 117.592 254.309V247.297H119.232V254.191C119.232 255.083 119.434 255.751 119.838 256.193C120.242 256.63 120.857 256.848 121.684 256.848C122.478 256.848 123.109 256.698 123.578 256.398C124.053 256.099 124.395 255.66 124.604 255.08C124.812 254.494 124.916 253.778 124.916 252.932V247.297H126.547ZM141.596 247.102C142.774 247.102 143.663 247.411 144.262 248.029C144.861 248.641 145.16 249.628 145.16 250.988V258H143.559V251.066C143.559 250.201 143.37 249.553 142.992 249.123C142.621 248.687 142.068 248.469 141.332 248.469C140.297 248.469 139.545 248.768 139.076 249.367C138.607 249.966 138.373 250.848 138.373 252.014V258H136.762V251.066C136.762 250.487 136.677 250.005 136.508 249.621C136.345 249.237 136.098 248.951 135.766 248.762C135.44 248.566 135.027 248.469 134.525 248.469C133.816 248.469 133.246 248.615 132.816 248.908C132.387 249.201 132.074 249.637 131.879 250.217C131.69 250.79 131.596 251.496 131.596 252.336V258H129.975V247.297H131.283L131.527 248.811H131.615C131.83 248.439 132.1 248.127 132.426 247.873C132.751 247.619 133.116 247.427 133.52 247.297C133.923 247.167 134.353 247.102 134.809 247.102C135.622 247.102 136.303 247.255 136.85 247.561C137.403 247.86 137.803 248.319 138.051 248.938H138.139C138.49 248.319 138.972 247.86 139.584 247.561C140.196 247.255 140.867 247.102 141.596 247.102ZM157.494 258.195C156.14 258.195 155.066 257.733 154.271 256.809C153.484 255.884 153.09 254.51 153.09 252.688C153.09 250.845 153.493 249.455 154.301 248.518C155.108 247.574 156.182 247.102 157.523 247.102C158.09 247.102 158.585 247.176 159.008 247.326C159.431 247.476 159.796 247.678 160.102 247.932C160.408 248.179 160.665 248.462 160.873 248.781H160.99C160.964 248.579 160.938 248.303 160.912 247.951C160.886 247.6 160.873 247.313 160.873 247.092V242.805H162.494V258H161.186L160.941 256.477H160.873C160.671 256.796 160.414 257.085 160.102 257.346C159.796 257.606 159.428 257.814 158.998 257.971C158.575 258.12 158.074 258.195 157.494 258.195ZM157.748 256.848C158.894 256.848 159.704 256.522 160.18 255.871C160.655 255.22 160.893 254.253 160.893 252.971V252.678C160.893 251.317 160.665 250.272 160.209 249.543C159.76 248.814 158.939 248.449 157.748 248.449C156.752 248.449 156.007 248.833 155.512 249.602C155.017 250.363 154.77 251.405 154.77 252.727C154.77 254.042 155.014 255.057 155.502 255.773C155.997 256.49 156.745 256.848 157.748 256.848ZM175.16 252.629C175.16 253.508 175.046 254.292 174.818 254.982C174.59 255.673 174.262 256.255 173.832 256.73C173.402 257.206 172.882 257.57 172.27 257.824C171.664 258.072 170.977 258.195 170.209 258.195C169.493 258.195 168.835 258.072 168.236 257.824C167.644 257.57 167.13 257.206 166.693 256.73C166.264 256.255 165.928 255.673 165.688 254.982C165.453 254.292 165.336 253.508 165.336 252.629C165.336 251.457 165.535 250.461 165.932 249.641C166.329 248.814 166.895 248.186 167.631 247.756C168.373 247.32 169.255 247.102 170.277 247.102C171.254 247.102 172.107 247.32 172.836 247.756C173.572 248.192 174.141 248.824 174.545 249.65C174.955 250.471 175.16 251.464 175.16 252.629ZM167.016 252.629C167.016 253.488 167.13 254.234 167.357 254.865C167.585 255.497 167.937 255.985 168.412 256.33C168.887 256.675 169.499 256.848 170.248 256.848C170.99 256.848 171.599 256.675 172.074 256.33C172.556 255.985 172.911 255.497 173.139 254.865C173.367 254.234 173.48 253.488 173.48 252.629C173.48 251.776 173.367 251.04 173.139 250.422C172.911 249.797 172.559 249.315 172.084 248.977C171.609 248.638 170.993 248.469 170.238 248.469C169.125 248.469 168.308 248.837 167.787 249.572C167.273 250.308 167.016 251.327 167.016 252.629ZM179.594 258H177.963V242.805H179.594V258ZM192.25 252.629C192.25 253.508 192.136 254.292 191.908 254.982C191.68 255.673 191.352 256.255 190.922 256.73C190.492 257.206 189.971 257.57 189.359 257.824C188.754 258.072 188.067 258.195 187.299 258.195C186.583 258.195 185.925 258.072 185.326 257.824C184.734 257.57 184.219 257.206 183.783 256.73C183.354 256.255 183.018 255.673 182.777 254.982C182.543 254.292 182.426 253.508 182.426 252.629C182.426 251.457 182.624 250.461 183.021 249.641C183.419 248.814 183.985 248.186 184.721 247.756C185.463 247.32 186.345 247.102 187.367 247.102C188.344 247.102 189.197 247.32 189.926 247.756C190.661 248.192 191.231 248.824 191.635 249.65C192.045 250.471 192.25 251.464 192.25 252.629ZM184.105 252.629C184.105 253.488 184.219 254.234 184.447 254.865C184.675 255.497 185.027 255.985 185.502 256.33C185.977 256.675 186.589 256.848 187.338 256.848C188.08 256.848 188.689 256.675 189.164 256.33C189.646 255.985 190.001 255.497 190.229 254.865C190.456 254.234 190.57 253.488 190.57 252.629C190.57 251.776 190.456 251.04 190.229 250.422C190.001 249.797 189.649 249.315 189.174 248.977C188.699 248.638 188.083 248.469 187.328 248.469C186.215 248.469 185.398 248.837 184.877 249.572C184.363 250.308 184.105 251.327 184.105 252.629ZM199.916 247.102C200.131 247.102 200.355 247.115 200.59 247.141C200.824 247.16 201.033 247.189 201.215 247.229L201.01 248.732C200.834 248.687 200.639 248.651 200.424 248.625C200.209 248.599 200.007 248.586 199.818 248.586C199.389 248.586 198.982 248.674 198.598 248.85C198.22 249.019 197.888 249.266 197.602 249.592C197.315 249.911 197.09 250.298 196.928 250.754C196.765 251.203 196.684 251.704 196.684 252.258V258H195.053V247.297H196.4L196.576 249.27H196.645C196.866 248.872 197.133 248.511 197.445 248.186C197.758 247.854 198.119 247.59 198.529 247.395C198.946 247.199 199.408 247.102 199.916 247.102ZM215.355 255.07C215.355 255.754 215.183 256.33 214.838 256.799C214.499 257.261 214.011 257.609 213.373 257.844C212.742 258.078 211.986 258.195 211.107 258.195C210.359 258.195 209.711 258.137 209.164 258.02C208.617 257.902 208.139 257.736 207.729 257.521V256.027C208.165 256.242 208.686 256.438 209.291 256.613C209.896 256.789 210.515 256.877 211.146 256.877C212.071 256.877 212.742 256.727 213.158 256.428C213.575 256.128 213.783 255.721 213.783 255.207C213.783 254.914 213.699 254.657 213.529 254.436C213.367 254.208 213.09 253.99 212.699 253.781C212.309 253.566 211.768 253.332 211.078 253.078C210.395 252.818 209.802 252.561 209.301 252.307C208.806 252.046 208.422 251.73 208.148 251.359C207.882 250.988 207.748 250.507 207.748 249.914C207.748 249.009 208.113 248.316 208.842 247.834C209.577 247.346 210.541 247.102 211.732 247.102C212.377 247.102 212.979 247.167 213.539 247.297C214.105 247.421 214.633 247.59 215.121 247.805L214.574 249.104C214.132 248.915 213.66 248.755 213.158 248.625C212.657 248.495 212.146 248.43 211.625 248.43C210.876 248.43 210.3 248.553 209.896 248.801C209.499 249.048 209.301 249.387 209.301 249.816C209.301 250.148 209.392 250.422 209.574 250.637C209.763 250.852 210.062 251.053 210.473 251.242C210.883 251.431 211.423 251.652 212.094 251.906C212.764 252.154 213.344 252.411 213.832 252.678C214.32 252.938 214.695 253.257 214.955 253.635C215.222 254.006 215.355 254.484 215.355 255.07ZM219.584 247.297V258H217.963V247.297H219.584ZM218.793 243.293C219.06 243.293 219.288 243.381 219.477 243.557C219.672 243.726 219.77 243.993 219.77 244.357C219.77 244.715 219.672 244.982 219.477 245.158C219.288 245.334 219.06 245.422 218.793 245.422C218.513 245.422 218.279 245.334 218.09 245.158C217.908 244.982 217.816 244.715 217.816 244.357C217.816 243.993 217.908 243.726 218.09 243.557C218.279 243.381 218.513 243.293 218.793 243.293ZM226.479 256.867C226.745 256.867 227.019 256.844 227.299 256.799C227.579 256.753 227.807 256.698 227.982 256.633V257.893C227.794 257.977 227.53 258.049 227.191 258.107C226.859 258.166 226.534 258.195 226.215 258.195C225.648 258.195 225.134 258.098 224.672 257.902C224.21 257.701 223.839 257.362 223.559 256.887C223.285 256.411 223.148 255.754 223.148 254.914V248.566H221.625V247.775L223.158 247.141L223.803 244.816H224.779V247.297H227.914V248.566H224.779V254.865C224.779 255.536 224.932 256.037 225.238 256.369C225.551 256.701 225.964 256.867 226.479 256.867ZM47.4453 274.121C48.7214 274.121 49.6686 274.408 50.2871 274.98C50.9056 275.553 51.2148 276.468 51.2148 277.725V285H50.0332L49.7207 283.418H49.6426C49.3431 283.809 49.0306 284.137 48.7051 284.404C48.3796 284.665 48.002 284.863 47.5723 285C47.1491 285.13 46.6283 285.195 46.0098 285.195C45.3587 285.195 44.7793 285.081 44.2715 284.854C43.7702 284.626 43.373 284.281 43.0801 283.818C42.7936 283.356 42.6504 282.77 42.6504 282.061C42.6504 280.993 43.0736 280.173 43.9199 279.6C44.7663 279.027 46.0553 278.714 47.7871 278.662L49.6328 278.584V277.93C49.6328 277.005 49.4342 276.357 49.0371 275.986C48.64 275.615 48.0801 275.43 47.3574 275.43C46.7975 275.43 46.2637 275.511 45.7559 275.674C45.248 275.837 44.7663 276.029 44.3105 276.25L43.8125 275.02C44.2943 274.772 44.8477 274.561 45.4727 274.385C46.0977 274.209 46.7552 274.121 47.4453 274.121ZM49.6133 279.727L47.9824 279.795C46.6478 279.847 45.707 280.065 45.1602 280.449C44.6133 280.833 44.3398 281.377 44.3398 282.08C44.3398 282.692 44.5254 283.145 44.8965 283.438C45.2676 283.73 45.7591 283.877 46.3711 283.877C47.3216 283.877 48.0996 283.613 48.7051 283.086C49.3105 282.559 49.6133 281.768 49.6133 280.713V279.727ZM66.1758 274.102C67.3542 274.102 68.2428 274.411 68.8418 275.029C69.4408 275.641 69.7402 276.628 69.7402 277.988V285H68.1387V278.066C68.1387 277.201 67.9499 276.553 67.5723 276.123C67.2012 275.687 66.6478 275.469 65.9121 275.469C64.877 275.469 64.125 275.768 63.6562 276.367C63.1875 276.966 62.9531 277.848 62.9531 279.014V285H61.3418V278.066C61.3418 277.487 61.2572 277.005 61.0879 276.621C60.9251 276.237 60.6777 275.951 60.3457 275.762C60.0202 275.566 59.6068 275.469 59.1055 275.469C58.3958 275.469 57.8262 275.615 57.3965 275.908C56.9668 276.201 56.6543 276.637 56.459 277.217C56.2702 277.79 56.1758 278.496 56.1758 279.336V285H54.5547V274.297H55.8633L56.1074 275.811H56.1953C56.4102 275.439 56.6803 275.127 57.0059 274.873C57.3314 274.619 57.696 274.427 58.0996 274.297C58.5033 274.167 58.9329 274.102 59.3887 274.102C60.2025 274.102 60.8828 274.255 61.4297 274.561C61.9831 274.86 62.3835 275.319 62.6309 275.938H62.7188C63.0703 275.319 63.5521 274.86 64.1641 274.561C64.776 274.255 65.4466 274.102 66.1758 274.102ZM77.1914 274.102C78.1029 274.102 78.8841 274.303 79.5352 274.707C80.1862 275.111 80.6842 275.677 81.0293 276.406C81.3743 277.129 81.5469 277.975 81.5469 278.945V279.951H74.1543C74.1738 281.208 74.4863 282.165 75.0918 282.822C75.6973 283.48 76.5501 283.809 77.6504 283.809C78.3275 283.809 78.9264 283.747 79.4473 283.623C79.9681 283.499 80.5085 283.317 81.0684 283.076V284.502C80.528 284.743 79.9909 284.919 79.457 285.029C78.9297 285.14 78.3047 285.195 77.582 285.195C76.5534 285.195 75.6549 284.987 74.8867 284.57C74.125 284.147 73.5326 283.529 73.1094 282.715C72.6862 281.901 72.4746 280.905 72.4746 279.727C72.4746 278.574 72.6667 277.578 73.0508 276.738C73.4414 275.892 73.9883 275.241 74.6914 274.785C75.401 274.329 76.2344 274.102 77.1914 274.102ZM77.1719 275.43C76.306 275.43 75.6159 275.713 75.1016 276.279C74.5872 276.846 74.2812 277.637 74.1836 278.652H79.8477C79.8411 278.014 79.7402 277.454 79.5449 276.973C79.3561 276.484 79.0664 276.107 78.6758 275.84C78.2852 275.566 77.7839 275.43 77.1719 275.43ZM87.7578 283.867C88.0247 283.867 88.2982 283.844 88.5781 283.799C88.8581 283.753 89.0859 283.698 89.2617 283.633V284.893C89.0729 284.977 88.8092 285.049 88.4707 285.107C88.1387 285.166 87.8132 285.195 87.4941 285.195C86.9277 285.195 86.4134 285.098 85.9512 284.902C85.4889 284.701 85.1178 284.362 84.8379 283.887C84.5645 283.411 84.4277 282.754 84.4277 281.914V275.566H82.9043V274.775L84.4375 274.141L85.082 271.816H86.0586V274.297H89.1934V275.566H86.0586V281.865C86.0586 282.536 86.2116 283.037 86.5176 283.369C86.8301 283.701 87.2435 283.867 87.7578 283.867ZM93.2852 282.676L93.4121 282.9C93.2949 283.376 93.1452 283.883 92.9629 284.424C92.7871 284.964 92.5918 285.505 92.377 286.045C92.1686 286.592 91.957 287.103 91.7422 287.578H90.5312C90.668 287.057 90.8014 286.507 90.9316 285.928C91.0618 285.355 91.179 284.788 91.2832 284.229C91.3939 283.662 91.4818 283.145 91.5469 282.676H93.2852ZM106.088 285.195C105.124 285.195 104.275 284.997 103.539 284.6C102.803 284.202 102.23 283.597 101.82 282.783C101.41 281.969 101.205 280.944 101.205 279.707C101.205 278.411 101.42 277.354 101.85 276.533C102.286 275.706 102.885 275.094 103.646 274.697C104.408 274.3 105.274 274.102 106.244 274.102C106.778 274.102 107.292 274.157 107.787 274.268C108.288 274.372 108.699 274.505 109.018 274.668L108.529 276.025C108.204 275.895 107.826 275.778 107.396 275.674C106.973 275.57 106.576 275.518 106.205 275.518C105.463 275.518 104.844 275.677 104.35 275.996C103.861 276.315 103.493 276.784 103.246 277.402C103.005 278.021 102.885 278.783 102.885 279.688C102.885 280.553 103.002 281.292 103.236 281.904C103.477 282.516 103.832 282.985 104.301 283.311C104.776 283.63 105.368 283.789 106.078 283.789C106.645 283.789 107.156 283.73 107.611 283.613C108.067 283.49 108.48 283.346 108.852 283.184V284.629C108.493 284.811 108.093 284.951 107.65 285.049C107.214 285.146 106.693 285.195 106.088 285.195ZM120.619 279.629C120.619 280.508 120.505 281.292 120.277 281.982C120.049 282.673 119.721 283.255 119.291 283.73C118.861 284.206 118.34 284.57 117.729 284.824C117.123 285.072 116.436 285.195 115.668 285.195C114.952 285.195 114.294 285.072 113.695 284.824C113.103 284.57 112.589 284.206 112.152 283.73C111.723 283.255 111.387 282.673 111.146 281.982C110.912 281.292 110.795 280.508 110.795 279.629C110.795 278.457 110.993 277.461 111.391 276.641C111.788 275.814 112.354 275.186 113.09 274.756C113.832 274.32 114.714 274.102 115.736 274.102C116.713 274.102 117.566 274.32 118.295 274.756C119.031 275.192 119.6 275.824 120.004 276.65C120.414 277.471 120.619 278.464 120.619 279.629ZM112.475 279.629C112.475 280.488 112.589 281.234 112.816 281.865C113.044 282.497 113.396 282.985 113.871 283.33C114.346 283.675 114.958 283.848 115.707 283.848C116.449 283.848 117.058 283.675 117.533 283.33C118.015 282.985 118.37 282.497 118.598 281.865C118.826 281.234 118.939 280.488 118.939 279.629C118.939 278.776 118.826 278.04 118.598 277.422C118.37 276.797 118.018 276.315 117.543 275.977C117.068 275.638 116.452 275.469 115.697 275.469C114.584 275.469 113.767 275.837 113.246 276.572C112.732 277.308 112.475 278.327 112.475 279.629ZM128.49 274.102C129.76 274.102 130.72 274.414 131.371 275.039C132.022 275.658 132.348 276.654 132.348 278.027V285H130.746V278.135C130.746 277.243 130.541 276.576 130.131 276.133C129.727 275.69 129.105 275.469 128.266 275.469C127.081 275.469 126.247 275.804 125.766 276.475C125.284 277.145 125.043 278.118 125.043 279.395V285H123.422V274.297H124.73L124.975 275.84H125.062C125.29 275.462 125.58 275.146 125.932 274.893C126.283 274.632 126.677 274.437 127.113 274.307C127.549 274.17 128.008 274.102 128.49 274.102ZM142.611 282.07C142.611 282.754 142.439 283.33 142.094 283.799C141.755 284.261 141.267 284.609 140.629 284.844C139.997 285.078 139.242 285.195 138.363 285.195C137.615 285.195 136.967 285.137 136.42 285.02C135.873 284.902 135.395 284.736 134.984 284.521V283.027C135.421 283.242 135.941 283.438 136.547 283.613C137.152 283.789 137.771 283.877 138.402 283.877C139.327 283.877 139.997 283.727 140.414 283.428C140.831 283.128 141.039 282.721 141.039 282.207C141.039 281.914 140.954 281.657 140.785 281.436C140.622 281.208 140.346 280.99 139.955 280.781C139.564 280.566 139.024 280.332 138.334 280.078C137.65 279.818 137.058 279.561 136.557 279.307C136.062 279.046 135.678 278.73 135.404 278.359C135.137 277.988 135.004 277.507 135.004 276.914C135.004 276.009 135.368 275.316 136.098 274.834C136.833 274.346 137.797 274.102 138.988 274.102C139.633 274.102 140.235 274.167 140.795 274.297C141.361 274.421 141.889 274.59 142.377 274.805L141.83 276.104C141.387 275.915 140.915 275.755 140.414 275.625C139.913 275.495 139.402 275.43 138.881 275.43C138.132 275.43 137.556 275.553 137.152 275.801C136.755 276.048 136.557 276.387 136.557 276.816C136.557 277.148 136.648 277.422 136.83 277.637C137.019 277.852 137.318 278.053 137.729 278.242C138.139 278.431 138.679 278.652 139.35 278.906C140.02 279.154 140.6 279.411 141.088 279.678C141.576 279.938 141.951 280.257 142.211 280.635C142.478 281.006 142.611 281.484 142.611 282.07ZM149.34 274.102C150.251 274.102 151.033 274.303 151.684 274.707C152.335 275.111 152.833 275.677 153.178 276.406C153.523 277.129 153.695 277.975 153.695 278.945V279.951H146.303C146.322 281.208 146.635 282.165 147.24 282.822C147.846 283.48 148.699 283.809 149.799 283.809C150.476 283.809 151.075 283.747 151.596 283.623C152.117 283.499 152.657 283.317 153.217 283.076V284.502C152.676 284.743 152.139 284.919 151.605 285.029C151.078 285.14 150.453 285.195 149.73 285.195C148.702 285.195 147.803 284.987 147.035 284.57C146.273 284.147 145.681 283.529 145.258 282.715C144.835 281.901 144.623 280.905 144.623 279.727C144.623 278.574 144.815 277.578 145.199 276.738C145.59 275.892 146.137 275.241 146.84 274.785C147.549 274.329 148.383 274.102 149.34 274.102ZM149.32 275.43C148.454 275.43 147.764 275.713 147.25 276.279C146.736 276.846 146.43 277.637 146.332 278.652H151.996C151.99 278.014 151.889 277.454 151.693 276.973C151.505 276.484 151.215 276.107 150.824 275.84C150.434 275.566 149.932 275.43 149.32 275.43ZM160.736 285.195C159.773 285.195 158.923 284.997 158.188 284.6C157.452 284.202 156.879 283.597 156.469 282.783C156.059 281.969 155.854 280.944 155.854 279.707C155.854 278.411 156.068 277.354 156.498 276.533C156.934 275.706 157.533 275.094 158.295 274.697C159.057 274.3 159.923 274.102 160.893 274.102C161.426 274.102 161.941 274.157 162.436 274.268C162.937 274.372 163.347 274.505 163.666 274.668L163.178 276.025C162.852 275.895 162.475 275.778 162.045 275.674C161.622 275.57 161.225 275.518 160.854 275.518C160.111 275.518 159.493 275.677 158.998 275.996C158.51 276.315 158.142 276.784 157.895 277.402C157.654 278.021 157.533 278.783 157.533 279.688C157.533 280.553 157.65 281.292 157.885 281.904C158.126 282.516 158.48 282.985 158.949 283.311C159.424 283.63 160.017 283.789 160.727 283.789C161.293 283.789 161.804 283.73 162.26 283.613C162.715 283.49 163.129 283.346 163.5 283.184V284.629C163.142 284.811 162.742 284.951 162.299 285.049C161.863 285.146 161.342 285.195 160.736 285.195ZM169.496 283.867C169.763 283.867 170.036 283.844 170.316 283.799C170.596 283.753 170.824 283.698 171 283.633V284.893C170.811 284.977 170.548 285.049 170.209 285.107C169.877 285.166 169.551 285.195 169.232 285.195C168.666 285.195 168.152 285.098 167.689 284.902C167.227 284.701 166.856 284.362 166.576 283.887C166.303 283.411 166.166 282.754 166.166 281.914V275.566H164.643V274.775L166.176 274.141L166.82 271.816H167.797V274.297H170.932V275.566H167.797V281.865C167.797 282.536 167.95 283.037 168.256 283.369C168.568 283.701 168.982 283.867 169.496 283.867ZM177.289 274.102C178.201 274.102 178.982 274.303 179.633 274.707C180.284 275.111 180.782 275.677 181.127 276.406C181.472 277.129 181.645 277.975 181.645 278.945V279.951H174.252C174.271 281.208 174.584 282.165 175.189 282.822C175.795 283.48 176.648 283.809 177.748 283.809C178.425 283.809 179.024 283.747 179.545 283.623C180.066 283.499 180.606 283.317 181.166 283.076V284.502C180.626 284.743 180.089 284.919 179.555 285.029C179.027 285.14 178.402 285.195 177.68 285.195C176.651 285.195 175.753 284.987 174.984 284.57C174.223 284.147 173.63 283.529 173.207 282.715C172.784 281.901 172.572 280.905 172.572 279.727C172.572 278.574 172.764 277.578 173.148 276.738C173.539 275.892 174.086 275.241 174.789 274.785C175.499 274.329 176.332 274.102 177.289 274.102ZM177.27 275.43C176.404 275.43 175.714 275.713 175.199 276.279C174.685 276.846 174.379 277.637 174.281 278.652H179.945C179.939 278.014 179.838 277.454 179.643 276.973C179.454 276.484 179.164 276.107 178.773 275.84C178.383 275.566 177.882 275.43 177.27 275.43ZM187.855 283.867C188.122 283.867 188.396 283.844 188.676 283.799C188.956 283.753 189.184 283.698 189.359 283.633V284.893C189.171 284.977 188.907 285.049 188.568 285.107C188.236 285.166 187.911 285.195 187.592 285.195C187.025 285.195 186.511 285.098 186.049 284.902C185.587 284.701 185.215 284.362 184.936 283.887C184.662 283.411 184.525 282.754 184.525 281.914V275.566H183.002V274.775L184.535 274.141L185.18 271.816H186.156V274.297H189.291V275.566H186.156V281.865C186.156 282.536 186.309 283.037 186.615 283.369C186.928 283.701 187.341 283.867 187.855 283.867ZM200.365 274.297V285H199.037L198.803 283.496H198.715C198.493 283.867 198.207 284.18 197.855 284.434C197.504 284.688 197.107 284.876 196.664 285C196.228 285.13 195.762 285.195 195.268 285.195C194.421 285.195 193.712 285.059 193.139 284.785C192.566 284.512 192.133 284.089 191.84 283.516C191.553 282.943 191.41 282.207 191.41 281.309V274.297H193.051V281.191C193.051 282.083 193.253 282.751 193.656 283.193C194.06 283.63 194.675 283.848 195.502 283.848C196.296 283.848 196.928 283.698 197.396 283.398C197.872 283.099 198.214 282.66 198.422 282.08C198.63 281.494 198.734 280.778 198.734 279.932V274.297H200.365ZM208.656 274.102C208.871 274.102 209.096 274.115 209.33 274.141C209.564 274.16 209.773 274.189 209.955 274.229L209.75 275.732C209.574 275.687 209.379 275.651 209.164 275.625C208.949 275.599 208.747 275.586 208.559 275.586C208.129 275.586 207.722 275.674 207.338 275.85C206.96 276.019 206.628 276.266 206.342 276.592C206.055 276.911 205.831 277.298 205.668 277.754C205.505 278.203 205.424 278.704 205.424 279.258V285H203.793V274.297H205.141L205.316 276.27H205.385C205.606 275.872 205.873 275.511 206.186 275.186C206.498 274.854 206.859 274.59 207.27 274.395C207.686 274.199 208.148 274.102 208.656 274.102ZM18.6172 301.121C19.8932 301.121 20.8405 301.408 21.459 301.98C22.0775 302.553 22.3867 303.468 22.3867 304.725V312H21.2051L20.8926 310.418H20.8145C20.515 310.809 20.2025 311.137 19.877 311.404C19.5514 311.665 19.1738 311.863 18.7441 312C18.321 312.13 17.8001 312.195 17.1816 312.195C16.5306 312.195 15.9512 312.081 15.4434 311.854C14.9421 311.626 14.5449 311.281 14.252 310.818C13.9655 310.356 13.8223 309.77 13.8223 309.061C13.8223 307.993 14.2454 307.173 15.0918 306.6C15.9382 306.027 17.2272 305.714 18.959 305.662L20.8047 305.584V304.93C20.8047 304.005 20.6061 303.357 20.209 302.986C19.8118 302.615 19.252 302.43 18.5293 302.43C17.9694 302.43 17.4355 302.511 16.9277 302.674C16.4199 302.837 15.9382 303.029 15.4824 303.25L14.9844 302.02C15.4661 301.772 16.0195 301.561 16.6445 301.385C17.2695 301.209 17.9271 301.121 18.6172 301.121ZM20.7852 306.727L19.1543 306.795C17.8197 306.847 16.8789 307.065 16.332 307.449C15.7852 307.833 15.5117 308.377 15.5117 309.08C15.5117 309.692 15.6973 310.145 16.0684 310.438C16.4395 310.73 16.931 310.877 17.543 310.877C18.4935 310.877 19.2715 310.613 19.877 310.086C20.4824 309.559 20.7852 308.768 20.7852 307.713V306.727ZM29.5352 312.195C28.181 312.195 27.1068 311.733 26.3125 310.809C25.5247 309.884 25.1309 308.51 25.1309 306.688C25.1309 304.845 25.5345 303.455 26.3418 302.518C27.1491 301.574 28.2233 301.102 29.5645 301.102C30.1309 301.102 30.6257 301.176 31.0488 301.326C31.472 301.476 31.8366 301.678 32.1426 301.932C32.4486 302.179 32.7057 302.462 32.9141 302.781H33.0312C33.0052 302.579 32.9792 302.303 32.9531 301.951C32.9271 301.6 32.9141 301.313 32.9141 301.092V296.805H34.5352V312H33.2266L32.9824 310.477H32.9141C32.7122 310.796 32.4551 311.085 32.1426 311.346C31.8366 311.606 31.4688 311.814 31.0391 311.971C30.6159 312.12 30.1146 312.195 29.5352 312.195ZM29.7891 310.848C30.9349 310.848 31.7454 310.522 32.2207 309.871C32.696 309.22 32.9336 308.253 32.9336 306.971V306.678C32.9336 305.317 32.7057 304.272 32.25 303.543C31.8008 302.814 30.9805 302.449 29.7891 302.449C28.793 302.449 28.0475 302.833 27.5527 303.602C27.0579 304.363 26.8105 305.405 26.8105 306.727C26.8105 308.042 27.0547 309.057 27.543 309.773C28.0378 310.49 28.7865 310.848 29.7891 310.848ZM39.5938 301.297V312H37.9727V301.297H39.5938ZM38.8027 297.293C39.0697 297.293 39.2975 297.381 39.4863 297.557C39.6816 297.726 39.7793 297.993 39.7793 298.357C39.7793 298.715 39.6816 298.982 39.4863 299.158C39.2975 299.334 39.0697 299.422 38.8027 299.422C38.5228 299.422 38.2884 299.334 38.0996 299.158C37.9173 298.982 37.8262 298.715 37.8262 298.357C37.8262 297.993 37.9173 297.726 38.0996 297.557C38.2884 297.381 38.5228 297.293 38.8027 297.293ZM48.0605 301.102C49.3952 301.102 50.4596 301.561 51.2539 302.479C52.0482 303.396 52.4453 304.777 52.4453 306.619C52.4453 307.837 52.263 308.859 51.8984 309.686C51.5339 310.512 51.0195 311.137 50.3555 311.561C49.6979 311.984 48.9199 312.195 48.0215 312.195C47.4551 312.195 46.957 312.12 46.5273 311.971C46.0977 311.821 45.7298 311.619 45.4238 311.365C45.1178 311.111 44.8639 310.835 44.6621 310.535H44.5449C44.5645 310.789 44.5872 311.095 44.6133 311.453C44.6458 311.811 44.6621 312.124 44.6621 312.391V316.785H43.0312V301.297H44.3691L44.584 302.879H44.6621C44.8704 302.553 45.1243 302.257 45.4238 301.99C45.7233 301.717 46.0879 301.502 46.5176 301.346C46.9538 301.183 47.4681 301.102 48.0605 301.102ZM47.7773 302.469C47.0352 302.469 46.4362 302.612 45.9805 302.898C45.5312 303.185 45.2025 303.615 44.9941 304.188C44.7858 304.754 44.6751 305.467 44.6621 306.326V306.639C44.6621 307.544 44.7598 308.309 44.9551 308.934C45.1569 309.559 45.4857 310.034 45.9414 310.359C46.4036 310.685 47.0221 310.848 47.7969 310.848C48.4609 310.848 49.0143 310.669 49.457 310.311C49.8997 309.952 50.2285 309.454 50.4434 308.816C50.6647 308.172 50.7754 307.433 50.7754 306.6C50.7754 305.337 50.528 304.334 50.0332 303.592C49.5449 302.843 48.793 302.469 47.7773 302.469ZM56.8984 301.297V312H55.2773V301.297H56.8984ZM56.1074 297.293C56.3743 297.293 56.6022 297.381 56.791 297.557C56.9863 297.726 57.084 297.993 57.084 298.357C57.084 298.715 56.9863 298.982 56.791 299.158C56.6022 299.334 56.3743 299.422 56.1074 299.422C55.8275 299.422 55.5931 299.334 55.4043 299.158C55.222 298.982 55.1309 298.715 55.1309 298.357C55.1309 297.993 55.222 297.726 55.4043 297.557C55.5931 297.381 55.8275 297.293 56.1074 297.293ZM67.2598 309.07C67.2598 309.754 67.0872 310.33 66.7422 310.799C66.4036 311.261 65.9154 311.609 65.2773 311.844C64.6458 312.078 63.8906 312.195 63.0117 312.195C62.263 312.195 61.6152 312.137 61.0684 312.02C60.5215 311.902 60.043 311.736 59.6328 311.521V310.027C60.069 310.242 60.5898 310.438 61.1953 310.613C61.8008 310.789 62.4193 310.877 63.0508 310.877C63.9753 310.877 64.6458 310.727 65.0625 310.428C65.4792 310.128 65.6875 309.721 65.6875 309.207C65.6875 308.914 65.6029 308.657 65.4336 308.436C65.2708 308.208 64.9941 307.99 64.6035 307.781C64.2129 307.566 63.6725 307.332 62.9824 307.078C62.2988 306.818 61.7064 306.561 61.2051 306.307C60.7103 306.046 60.3262 305.73 60.0527 305.359C59.7858 304.988 59.6523 304.507 59.6523 303.914C59.6523 303.009 60.0169 302.316 60.7461 301.834C61.4818 301.346 62.4453 301.102 63.6367 301.102C64.2812 301.102 64.8835 301.167 65.4434 301.297C66.0098 301.421 66.5371 301.59 67.0254 301.805L66.4785 303.104C66.0358 302.915 65.5638 302.755 65.0625 302.625C64.5612 302.495 64.0501 302.43 63.5293 302.43C62.7806 302.43 62.2044 302.553 61.8008 302.801C61.4036 303.048 61.2051 303.387 61.2051 303.816C61.2051 304.148 61.2962 304.422 61.4785 304.637C61.6673 304.852 61.9668 305.053 62.377 305.242C62.7871 305.431 63.3275 305.652 63.998 305.906C64.6686 306.154 65.248 306.411 65.7363 306.678C66.2246 306.938 66.599 307.257 66.8594 307.635C67.1263 308.006 67.2598 308.484 67.2598 309.07ZM74.1543 312.195C73.1908 312.195 72.3411 311.997 71.6055 311.6C70.8698 311.202 70.2969 310.597 69.8867 309.783C69.4766 308.969 69.2715 307.944 69.2715 306.707C69.2715 305.411 69.4863 304.354 69.916 303.533C70.3522 302.706 70.9512 302.094 71.7129 301.697C72.4746 301.3 73.3405 301.102 74.3105 301.102C74.8444 301.102 75.3587 301.157 75.8535 301.268C76.3548 301.372 76.765 301.505 77.084 301.668L76.5957 303.025C76.2702 302.895 75.8926 302.778 75.4629 302.674C75.0397 302.57 74.6426 302.518 74.2715 302.518C73.5293 302.518 72.9108 302.677 72.416 302.996C71.9277 303.315 71.5599 303.784 71.3125 304.402C71.0716 305.021 70.9512 305.783 70.9512 306.688C70.9512 307.553 71.0684 308.292 71.3027 308.904C71.5436 309.516 71.8984 309.985 72.3672 310.311C72.8424 310.63 73.4349 310.789 74.1445 310.789C74.7109 310.789 75.222 310.73 75.6777 310.613C76.1335 310.49 76.5469 310.346 76.918 310.184V311.629C76.5599 311.811 76.1595 311.951 75.7168 312.049C75.2806 312.146 74.7598 312.195 74.1543 312.195ZM81.0781 301.297V312H79.457V301.297H81.0781ZM80.2871 297.293C80.554 297.293 80.7819 297.381 80.9707 297.557C81.166 297.726 81.2637 297.993 81.2637 298.357C81.2637 298.715 81.166 298.982 80.9707 299.158C80.7819 299.334 80.554 299.422 80.2871 299.422C80.0072 299.422 79.7728 299.334 79.584 299.158C79.4017 298.982 79.3105 298.715 79.3105 298.357C79.3105 297.993 79.4017 297.726 79.584 297.557C79.7728 297.381 80.0072 297.293 80.2871 297.293ZM89.584 301.102C90.8535 301.102 91.8138 301.414 92.4648 302.039C93.1159 302.658 93.4414 303.654 93.4414 305.027V312H91.8398V305.135C91.8398 304.243 91.6348 303.576 91.2246 303.133C90.821 302.69 90.1992 302.469 89.3594 302.469C88.1745 302.469 87.3411 302.804 86.8594 303.475C86.3776 304.145 86.1367 305.118 86.1367 306.395V312H84.5156V301.297H85.8242L86.0684 302.84H86.1562C86.3841 302.462 86.6738 302.146 87.0254 301.893C87.377 301.632 87.7708 301.437 88.207 301.307C88.6432 301.17 89.1022 301.102 89.584 301.102ZM99.7695 316.805C98.3633 316.805 97.2793 316.541 96.5176 316.014C95.7559 315.493 95.375 314.76 95.375 313.816C95.375 313.146 95.5866 312.573 96.0098 312.098C96.4395 311.622 97.0319 311.307 97.7871 311.15C97.5072 311.02 97.2663 310.825 97.0645 310.564C96.8691 310.304 96.7715 310.005 96.7715 309.666C96.7715 309.275 96.8789 308.934 97.0938 308.641C97.3151 308.341 97.6504 308.055 98.0996 307.781C97.5397 307.553 97.084 307.169 96.7324 306.629C96.3874 306.082 96.2148 305.447 96.2148 304.725C96.2148 303.956 96.3743 303.302 96.6934 302.762C97.0124 302.215 97.4746 301.798 98.0801 301.512C98.6855 301.225 99.418 301.082 100.277 301.082C100.466 301.082 100.655 301.092 100.844 301.111C101.039 301.124 101.225 301.147 101.4 301.18C101.576 301.206 101.729 301.238 101.859 301.277H105.531V302.322L103.559 302.566C103.754 302.82 103.917 303.126 104.047 303.484C104.177 303.842 104.242 304.24 104.242 304.676C104.242 305.743 103.881 306.593 103.158 307.225C102.436 307.85 101.443 308.162 100.18 308.162C99.8802 308.162 99.5742 308.136 99.2617 308.084C98.9427 308.26 98.6986 308.455 98.5293 308.67C98.3665 308.885 98.2852 309.132 98.2852 309.412C98.2852 309.62 98.347 309.786 98.4707 309.91C98.6009 310.034 98.7865 310.125 99.0273 310.184C99.2682 310.236 99.5579 310.262 99.8965 310.262H101.781C102.947 310.262 103.839 310.506 104.457 310.994C105.082 311.482 105.395 312.195 105.395 313.133C105.395 314.318 104.913 315.226 103.949 315.857C102.986 316.489 101.592 316.805 99.7695 316.805ZM99.8184 315.535C100.704 315.535 101.436 315.444 102.016 315.262C102.602 315.086 103.038 314.829 103.324 314.49C103.617 314.158 103.764 313.761 103.764 313.299C103.764 312.869 103.666 312.544 103.471 312.322C103.275 312.107 102.989 311.964 102.611 311.893C102.234 311.814 101.771 311.775 101.225 311.775H99.3691C98.8874 311.775 98.4674 311.85 98.1094 312C97.7513 312.15 97.4746 312.371 97.2793 312.664C97.0905 312.957 96.9961 313.322 96.9961 313.758C96.9961 314.337 97.2402 314.777 97.7285 315.076C98.2168 315.382 98.9134 315.535 99.8184 315.535ZM100.238 306.98C101.013 306.98 101.596 306.785 101.986 306.395C102.377 306.004 102.572 305.434 102.572 304.686C102.572 303.885 102.374 303.286 101.977 302.889C101.579 302.485 100.993 302.283 100.219 302.283C99.4766 302.283 98.9036 302.492 98.5 302.908C98.1029 303.318 97.9043 303.921 97.9043 304.715C97.9043 305.444 98.1061 306.004 98.5098 306.395C98.9134 306.785 99.4896 306.98 100.238 306.98ZM116.957 301.102C117.868 301.102 118.65 301.303 119.301 301.707C119.952 302.111 120.45 302.677 120.795 303.406C121.14 304.129 121.312 304.975 121.312 305.945V306.951H113.92C113.939 308.208 114.252 309.165 114.857 309.822C115.463 310.48 116.316 310.809 117.416 310.809C118.093 310.809 118.692 310.747 119.213 310.623C119.734 310.499 120.274 310.317 120.834 310.076V311.502C120.294 311.743 119.757 311.919 119.223 312.029C118.695 312.14 118.07 312.195 117.348 312.195C116.319 312.195 115.421 311.987 114.652 311.57C113.891 311.147 113.298 310.529 112.875 309.715C112.452 308.901 112.24 307.905 112.24 306.727C112.24 305.574 112.432 304.578 112.816 303.738C113.207 302.892 113.754 302.241 114.457 301.785C115.167 301.329 116 301.102 116.957 301.102ZM116.938 302.43C116.072 302.43 115.382 302.713 114.867 303.279C114.353 303.846 114.047 304.637 113.949 305.652H119.613C119.607 305.014 119.506 304.454 119.311 303.973C119.122 303.484 118.832 303.107 118.441 302.84C118.051 302.566 117.549 302.43 116.938 302.43ZM125.697 312H124.066V296.805H125.697V312ZM130.746 301.297V312H129.125V301.297H130.746ZM129.955 297.293C130.222 297.293 130.45 297.381 130.639 297.557C130.834 297.726 130.932 297.993 130.932 298.357C130.932 298.715 130.834 298.982 130.639 299.158C130.45 299.334 130.222 299.422 129.955 299.422C129.675 299.422 129.441 299.334 129.252 299.158C129.07 298.982 128.979 298.715 128.979 298.357C128.979 297.993 129.07 297.726 129.252 297.557C129.441 297.381 129.675 297.293 129.955 297.293ZM137.641 310.867C137.908 310.867 138.181 310.844 138.461 310.799C138.741 310.753 138.969 310.698 139.145 310.633V311.893C138.956 311.977 138.692 312.049 138.354 312.107C138.021 312.166 137.696 312.195 137.377 312.195C136.811 312.195 136.296 312.098 135.834 311.902C135.372 311.701 135.001 311.362 134.721 310.887C134.447 310.411 134.311 309.754 134.311 308.914V302.566H132.787V301.775L134.32 301.141L134.965 298.816H135.941V301.297H139.076V302.566H135.941V308.865C135.941 309.536 136.094 310.037 136.4 310.369C136.713 310.701 137.126 310.867 137.641 310.867ZM141.068 310.984C141.068 310.529 141.179 310.206 141.4 310.018C141.622 309.822 141.892 309.725 142.211 309.725C142.543 309.725 142.823 309.822 143.051 310.018C143.279 310.206 143.393 310.529 143.393 310.984C143.393 311.434 143.279 311.762 143.051 311.971C142.823 312.173 142.543 312.273 142.211 312.273C141.892 312.273 141.622 312.173 141.4 311.971C141.179 311.762 141.068 311.434 141.068 310.984ZM158.109 298.982C157.322 298.982 156.612 299.119 155.98 299.393C155.355 299.66 154.822 300.05 154.379 300.564C153.943 301.072 153.607 301.688 153.373 302.41C153.139 303.133 153.021 303.947 153.021 304.852C153.021 306.049 153.207 307.091 153.578 307.977C153.956 308.855 154.516 309.536 155.258 310.018C156.007 310.499 156.941 310.74 158.061 310.74C158.699 310.74 159.298 310.688 159.857 310.584C160.424 310.473 160.974 310.337 161.508 310.174V311.619C160.987 311.814 160.44 311.958 159.867 312.049C159.294 312.146 158.614 312.195 157.826 312.195C156.374 312.195 155.16 311.896 154.184 311.297C153.214 310.691 152.484 309.839 151.996 308.738C151.514 307.638 151.273 306.339 151.273 304.842C151.273 303.761 151.423 302.775 151.723 301.883C152.029 300.984 152.471 300.21 153.051 299.559C153.637 298.908 154.353 298.406 155.199 298.055C156.052 297.697 157.029 297.518 158.129 297.518C158.852 297.518 159.548 297.589 160.219 297.732C160.889 297.876 161.495 298.081 162.035 298.348L161.371 299.754C160.915 299.546 160.414 299.367 159.867 299.217C159.327 299.061 158.741 298.982 158.109 298.982ZM173.197 301.297V312H171.869L171.635 310.496H171.547C171.326 310.867 171.039 311.18 170.688 311.434C170.336 311.688 169.939 311.876 169.496 312C169.06 312.13 168.594 312.195 168.1 312.195C167.253 312.195 166.544 312.059 165.971 311.785C165.398 311.512 164.965 311.089 164.672 310.516C164.385 309.943 164.242 309.207 164.242 308.309V301.297H165.883V308.191C165.883 309.083 166.085 309.751 166.488 310.193C166.892 310.63 167.507 310.848 168.334 310.848C169.128 310.848 169.76 310.698 170.229 310.398C170.704 310.099 171.046 309.66 171.254 309.08C171.462 308.494 171.566 307.778 171.566 306.932V301.297H173.197ZM181.488 301.102C181.703 301.102 181.928 301.115 182.162 301.141C182.396 301.16 182.605 301.189 182.787 301.229L182.582 302.732C182.406 302.687 182.211 302.651 181.996 302.625C181.781 302.599 181.579 302.586 181.391 302.586C180.961 302.586 180.554 302.674 180.17 302.85C179.792 303.019 179.46 303.266 179.174 303.592C178.887 303.911 178.663 304.298 178.5 304.754C178.337 305.203 178.256 305.704 178.256 306.258V312H176.625V301.297H177.973L178.148 303.27H178.217C178.438 302.872 178.705 302.511 179.018 302.186C179.33 301.854 179.691 301.59 180.102 301.395C180.518 301.199 180.98 301.102 181.488 301.102ZM188.812 301.121C190.089 301.121 191.036 301.408 191.654 301.98C192.273 302.553 192.582 303.468 192.582 304.725V312H191.4L191.088 310.418H191.01C190.71 310.809 190.398 311.137 190.072 311.404C189.747 311.665 189.369 311.863 188.939 312C188.516 312.13 187.995 312.195 187.377 312.195C186.726 312.195 186.146 312.081 185.639 311.854C185.137 311.626 184.74 311.281 184.447 310.818C184.161 310.356 184.018 309.77 184.018 309.061C184.018 307.993 184.441 307.173 185.287 306.6C186.133 306.027 187.423 305.714 189.154 305.662L191 305.584V304.93C191 304.005 190.801 303.357 190.404 302.986C190.007 302.615 189.447 302.43 188.725 302.43C188.165 302.43 187.631 302.511 187.123 302.674C186.615 302.837 186.133 303.029 185.678 303.25L185.18 302.02C185.661 301.772 186.215 301.561 186.84 301.385C187.465 301.209 188.122 301.121 188.812 301.121ZM190.98 306.727L189.35 306.795C188.015 306.847 187.074 307.065 186.527 307.449C185.98 307.833 185.707 308.377 185.707 309.08C185.707 309.692 185.893 310.145 186.264 310.438C186.635 310.73 187.126 310.877 187.738 310.877C188.689 310.877 189.467 310.613 190.072 310.086C190.678 309.559 190.98 308.768 190.98 307.713V306.727ZM197.543 296.805V300.604C197.543 301.04 197.53 301.463 197.504 301.873C197.484 302.283 197.468 302.602 197.455 302.83H197.543C197.836 302.348 198.259 301.941 198.812 301.609C199.366 301.277 200.072 301.111 200.932 301.111C202.273 301.111 203.34 301.577 204.135 302.508C204.936 303.432 205.336 304.809 205.336 306.639C205.336 307.843 205.154 308.859 204.789 309.686C204.424 310.512 203.91 311.137 203.246 311.561C202.582 311.984 201.798 312.195 200.893 312.195C200.046 312.195 199.35 312.039 198.803 311.727C198.262 311.408 197.846 311.02 197.553 310.564H197.426L197.094 312H195.922V296.805H197.543ZM200.668 302.469C199.893 302.469 199.278 302.622 198.822 302.928C198.367 303.227 198.038 303.683 197.836 304.295C197.641 304.9 197.543 305.669 197.543 306.6V306.688C197.543 308.035 197.768 309.067 198.217 309.783C198.666 310.493 199.483 310.848 200.668 310.848C201.664 310.848 202.41 310.483 202.904 309.754C203.406 309.025 203.656 307.983 203.656 306.629C203.656 305.249 203.409 304.21 202.914 303.514C202.426 302.817 201.677 302.469 200.668 302.469ZM209.789 301.297V312H208.168V301.297H209.789ZM208.998 297.293C209.265 297.293 209.493 297.381 209.682 297.557C209.877 297.726 209.975 297.993 209.975 298.357C209.975 298.715 209.877 298.982 209.682 299.158C209.493 299.334 209.265 299.422 208.998 299.422C208.718 299.422 208.484 299.334 208.295 299.158C208.113 298.982 208.021 298.715 208.021 298.357C208.021 297.993 208.113 297.726 208.295 297.557C208.484 297.381 208.718 297.293 208.998 297.293ZM216.684 310.867C216.951 310.867 217.224 310.844 217.504 310.799C217.784 310.753 218.012 310.698 218.188 310.633V311.893C217.999 311.977 217.735 312.049 217.396 312.107C217.064 312.166 216.739 312.195 216.42 312.195C215.854 312.195 215.339 312.098 214.877 311.902C214.415 311.701 214.044 311.362 213.764 310.887C213.49 310.411 213.354 309.754 213.354 308.914V302.566H211.83V301.775L213.363 301.141L214.008 298.816H214.984V301.297H218.119V302.566H214.984V308.865C214.984 309.536 215.137 310.037 215.443 310.369C215.756 310.701 216.169 310.867 216.684 310.867ZM229.193 301.297V312H227.865L227.631 310.496H227.543C227.322 310.867 227.035 311.18 226.684 311.434C226.332 311.688 225.935 311.876 225.492 312C225.056 312.13 224.59 312.195 224.096 312.195C223.249 312.195 222.54 312.059 221.967 311.785C221.394 311.512 220.961 311.089 220.668 310.516C220.382 309.943 220.238 309.207 220.238 308.309V301.297H221.879V308.191C221.879 309.083 222.081 309.751 222.484 310.193C222.888 310.63 223.503 310.848 224.33 310.848C225.124 310.848 225.756 310.698 226.225 310.398C226.7 310.099 227.042 309.66 227.25 309.08C227.458 308.494 227.562 307.778 227.562 306.932V301.297H229.193ZM237.484 301.102C237.699 301.102 237.924 301.115 238.158 301.141C238.393 301.16 238.601 301.189 238.783 301.229L238.578 302.732C238.402 302.687 238.207 302.651 237.992 302.625C237.777 302.599 237.576 302.586 237.387 302.586C236.957 302.586 236.55 302.674 236.166 302.85C235.788 303.019 235.456 303.266 235.17 303.592C234.883 303.911 234.659 304.298 234.496 304.754C234.333 305.203 234.252 305.704 234.252 306.258V312H232.621V301.297H233.969L234.145 303.27H234.213C234.434 302.872 234.701 302.511 235.014 302.186C235.326 301.854 235.688 301.59 236.098 301.395C236.514 301.199 236.977 301.102 237.484 301.102ZM60.3652 339.195C59.4017 339.195 58.5521 338.997 57.8164 338.6C57.0807 338.202 56.5078 337.597 56.0977 336.783C55.6875 335.969 55.4824 334.944 55.4824 333.707C55.4824 332.411 55.6973 331.354 56.127 330.533C56.5632 329.706 57.1621 329.094 57.9238 328.697C58.6855 328.3 59.5514 328.102 60.5215 328.102C61.0553 328.102 61.5697 328.157 62.0645 328.268C62.5658 328.372 62.9759 328.505 63.2949 328.668L62.8066 330.025C62.4811 329.895 62.1035 329.778 61.6738 329.674C61.2507 329.57 60.8535 329.518 60.4824 329.518C59.7402 329.518 59.1217 329.677 58.627 329.996C58.1387 330.315 57.7708 330.784 57.5234 331.402C57.2826 332.021 57.1621 332.783 57.1621 333.688C57.1621 334.553 57.2793 335.292 57.5137 335.904C57.7546 336.516 58.1094 336.985 58.5781 337.311C59.0534 337.63 59.6458 337.789 60.3555 337.789C60.9219 337.789 61.4329 337.73 61.8887 337.613C62.3444 337.49 62.7578 337.346 63.1289 337.184V338.629C62.7708 338.811 62.3704 338.951 61.9277 339.049C61.4915 339.146 60.9707 339.195 60.3652 339.195ZM74.8965 333.629C74.8965 334.508 74.7826 335.292 74.5547 335.982C74.3268 336.673 73.998 337.255 73.5684 337.73C73.1387 338.206 72.6178 338.57 72.0059 338.824C71.4004 339.072 70.7135 339.195 69.9453 339.195C69.2292 339.195 68.5716 339.072 67.9727 338.824C67.3802 338.57 66.8659 338.206 66.4297 337.73C66 337.255 65.6647 336.673 65.4238 335.982C65.1895 335.292 65.0723 334.508 65.0723 333.629C65.0723 332.457 65.2708 331.461 65.668 330.641C66.0651 329.814 66.6315 329.186 67.3672 328.756C68.1094 328.32 68.9915 328.102 70.0137 328.102C70.9902 328.102 71.8431 328.32 72.5723 328.756C73.3079 329.192 73.8776 329.824 74.2812 330.65C74.6914 331.471 74.8965 332.464 74.8965 333.629ZM66.752 333.629C66.752 334.488 66.8659 335.234 67.0938 335.865C67.3216 336.497 67.6732 336.985 68.1484 337.33C68.6237 337.675 69.2357 337.848 69.9844 337.848C70.7266 337.848 71.3353 337.675 71.8105 337.33C72.2923 336.985 72.6471 336.497 72.875 335.865C73.1029 335.234 73.2168 334.488 73.2168 333.629C73.2168 332.776 73.1029 332.04 72.875 331.422C72.6471 330.797 72.2956 330.315 71.8203 329.977C71.3451 329.638 70.7298 329.469 69.9746 329.469C68.8613 329.469 68.0443 329.837 67.5234 330.572C67.0091 331.308 66.752 332.327 66.752 333.629ZM82.7676 328.102C84.0371 328.102 84.9974 328.414 85.6484 329.039C86.2995 329.658 86.625 330.654 86.625 332.027V339H85.0234V332.135C85.0234 331.243 84.8184 330.576 84.4082 330.133C84.0046 329.69 83.3828 329.469 82.543 329.469C81.3581 329.469 80.5247 329.804 80.043 330.475C79.5612 331.145 79.3203 332.118 79.3203 333.395V339H77.6992V328.297H79.0078L79.252 329.84H79.3398C79.5677 329.462 79.8574 329.146 80.209 328.893C80.5605 328.632 80.9544 328.437 81.3906 328.307C81.8268 328.17 82.2858 328.102 82.7676 328.102ZM96.8887 336.07C96.8887 336.754 96.7161 337.33 96.3711 337.799C96.0326 338.261 95.5443 338.609 94.9062 338.844C94.2747 339.078 93.5195 339.195 92.6406 339.195C91.8919 339.195 91.2441 339.137 90.6973 339.02C90.1504 338.902 89.6719 338.736 89.2617 338.521V337.027C89.6979 337.242 90.2188 337.438 90.8242 337.613C91.4297 337.789 92.0482 337.877 92.6797 337.877C93.6042 337.877 94.2747 337.727 94.6914 337.428C95.1081 337.128 95.3164 336.721 95.3164 336.207C95.3164 335.914 95.2318 335.657 95.0625 335.436C94.8997 335.208 94.623 334.99 94.2324 334.781C93.8418 334.566 93.3014 334.332 92.6113 334.078C91.9277 333.818 91.3353 333.561 90.834 333.307C90.3392 333.046 89.9551 332.73 89.6816 332.359C89.4147 331.988 89.2812 331.507 89.2812 330.914C89.2812 330.009 89.6458 329.316 90.375 328.834C91.1107 328.346 92.0742 328.102 93.2656 328.102C93.9102 328.102 94.5124 328.167 95.0723 328.297C95.6387 328.421 96.166 328.59 96.6543 328.805L96.1074 330.104C95.6647 329.915 95.1927 329.755 94.6914 329.625C94.1901 329.495 93.679 329.43 93.1582 329.43C92.4095 329.43 91.8333 329.553 91.4297 329.801C91.0326 330.048 90.834 330.387 90.834 330.816C90.834 331.148 90.9251 331.422 91.1074 331.637C91.2962 331.852 91.5957 332.053 92.0059 332.242C92.416 332.431 92.9564 332.652 93.627 332.906C94.2975 333.154 94.877 333.411 95.3652 333.678C95.8535 333.938 96.2279 334.257 96.4883 334.635C96.7552 335.006 96.8887 335.484 96.8887 336.07ZM103.617 328.102C104.529 328.102 105.31 328.303 105.961 328.707C106.612 329.111 107.11 329.677 107.455 330.406C107.8 331.129 107.973 331.975 107.973 332.945V333.951H100.58C100.6 335.208 100.912 336.165 101.518 336.822C102.123 337.48 102.976 337.809 104.076 337.809C104.753 337.809 105.352 337.747 105.873 337.623C106.394 337.499 106.934 337.317 107.494 337.076V338.502C106.954 338.743 106.417 338.919 105.883 339.029C105.355 339.14 104.73 339.195 104.008 339.195C102.979 339.195 102.081 338.987 101.312 338.57C100.551 338.147 99.9583 337.529 99.5352 336.715C99.112 335.901 98.9004 334.905 98.9004 333.727C98.9004 332.574 99.0924 331.578 99.4766 330.738C99.8672 329.892 100.414 329.241 101.117 328.785C101.827 328.329 102.66 328.102 103.617 328.102ZM103.598 329.43C102.732 329.43 102.042 329.713 101.527 330.279C101.013 330.846 100.707 331.637 100.609 332.652H106.273C106.267 332.014 106.166 331.454 105.971 330.973C105.782 330.484 105.492 330.107 105.102 329.84C104.711 329.566 104.21 329.43 103.598 329.43ZM115.014 339.195C114.05 339.195 113.201 338.997 112.465 338.6C111.729 338.202 111.156 337.597 110.746 336.783C110.336 335.969 110.131 334.944 110.131 333.707C110.131 332.411 110.346 331.354 110.775 330.533C111.212 329.706 111.811 329.094 112.572 328.697C113.334 328.3 114.2 328.102 115.17 328.102C115.704 328.102 116.218 328.157 116.713 328.268C117.214 328.372 117.624 328.505 117.943 328.668L117.455 330.025C117.13 329.895 116.752 329.778 116.322 329.674C115.899 329.57 115.502 329.518 115.131 329.518C114.389 329.518 113.77 329.677 113.275 329.996C112.787 330.315 112.419 330.784 112.172 331.402C111.931 332.021 111.811 332.783 111.811 333.688C111.811 334.553 111.928 335.292 112.162 335.904C112.403 336.516 112.758 336.985 113.227 337.311C113.702 337.63 114.294 337.789 115.004 337.789C115.57 337.789 116.081 337.73 116.537 337.613C116.993 337.49 117.406 337.346 117.777 337.184V338.629C117.419 338.811 117.019 338.951 116.576 339.049C116.14 339.146 115.619 339.195 115.014 339.195ZM123.773 337.867C124.04 337.867 124.314 337.844 124.594 337.799C124.874 337.753 125.102 337.698 125.277 337.633V338.893C125.089 338.977 124.825 339.049 124.486 339.107C124.154 339.166 123.829 339.195 123.51 339.195C122.943 339.195 122.429 339.098 121.967 338.902C121.505 338.701 121.133 338.362 120.854 337.887C120.58 337.411 120.443 336.754 120.443 335.914V329.566H118.92V328.775L120.453 328.141L121.098 325.816H122.074V328.297H125.209V329.566H122.074V335.865C122.074 336.536 122.227 337.037 122.533 337.369C122.846 337.701 123.259 337.867 123.773 337.867ZM131.566 328.102C132.478 328.102 133.259 328.303 133.91 328.707C134.561 329.111 135.059 329.677 135.404 330.406C135.749 331.129 135.922 331.975 135.922 332.945V333.951H128.529C128.549 335.208 128.861 336.165 129.467 336.822C130.072 337.48 130.925 337.809 132.025 337.809C132.702 337.809 133.301 337.747 133.822 337.623C134.343 337.499 134.883 337.317 135.443 337.076V338.502C134.903 338.743 134.366 338.919 133.832 339.029C133.305 339.14 132.68 339.195 131.957 339.195C130.928 339.195 130.03 338.987 129.262 338.57C128.5 338.147 127.908 337.529 127.484 336.715C127.061 335.901 126.85 334.905 126.85 333.727C126.85 332.574 127.042 331.578 127.426 330.738C127.816 329.892 128.363 329.241 129.066 328.785C129.776 328.329 130.609 328.102 131.566 328.102ZM131.547 329.43C130.681 329.43 129.991 329.713 129.477 330.279C128.962 330.846 128.656 331.637 128.559 332.652H134.223C134.216 332.014 134.115 331.454 133.92 330.973C133.731 330.484 133.441 330.107 133.051 329.84C132.66 329.566 132.159 329.43 131.547 329.43ZM142.133 337.867C142.4 337.867 142.673 337.844 142.953 337.799C143.233 337.753 143.461 337.698 143.637 337.633V338.893C143.448 338.977 143.184 339.049 142.846 339.107C142.514 339.166 142.188 339.195 141.869 339.195C141.303 339.195 140.788 339.098 140.326 338.902C139.864 338.701 139.493 338.362 139.213 337.887C138.939 337.411 138.803 336.754 138.803 335.914V329.566H137.279V328.775L138.812 328.141L139.457 325.816H140.434V328.297H143.568V329.566H140.434V335.865C140.434 336.536 140.587 337.037 140.893 337.369C141.205 337.701 141.618 337.867 142.133 337.867ZM154.643 328.297V339H153.314L153.08 337.496H152.992C152.771 337.867 152.484 338.18 152.133 338.434C151.781 338.688 151.384 338.876 150.941 339C150.505 339.13 150.04 339.195 149.545 339.195C148.699 339.195 147.989 339.059 147.416 338.785C146.843 338.512 146.41 338.089 146.117 337.516C145.831 336.943 145.688 336.207 145.688 335.309V328.297H147.328V335.191C147.328 336.083 147.53 336.751 147.934 337.193C148.337 337.63 148.952 337.848 149.779 337.848C150.574 337.848 151.205 337.698 151.674 337.398C152.149 337.099 152.491 336.66 152.699 336.08C152.908 335.494 153.012 334.778 153.012 333.932V328.297H154.643ZM162.934 328.102C163.148 328.102 163.373 328.115 163.607 328.141C163.842 328.16 164.05 328.189 164.232 328.229L164.027 329.732C163.852 329.687 163.656 329.651 163.441 329.625C163.227 329.599 163.025 329.586 162.836 329.586C162.406 329.586 161.999 329.674 161.615 329.85C161.238 330.019 160.906 330.266 160.619 330.592C160.333 330.911 160.108 331.298 159.945 331.754C159.783 332.203 159.701 332.704 159.701 333.258V339H158.07V328.297H159.418L159.594 330.27H159.662C159.883 329.872 160.15 329.511 160.463 329.186C160.775 328.854 161.137 328.59 161.547 328.395C161.964 328.199 162.426 328.102 162.934 328.102ZM175.57 328.102C176.482 328.102 177.263 328.303 177.914 328.707C178.565 329.111 179.063 329.677 179.408 330.406C179.753 331.129 179.926 331.975 179.926 332.945V333.951H172.533C172.553 335.208 172.865 336.165 173.471 336.822C174.076 337.48 174.929 337.809 176.029 337.809C176.706 337.809 177.305 337.747 177.826 337.623C178.347 337.499 178.887 337.317 179.447 337.076V338.502C178.907 338.743 178.37 338.919 177.836 339.029C177.309 339.14 176.684 339.195 175.961 339.195C174.932 339.195 174.034 338.987 173.266 338.57C172.504 338.147 171.911 337.529 171.488 336.715C171.065 335.901 170.854 334.905 170.854 333.727C170.854 332.574 171.046 331.578 171.43 330.738C171.82 329.892 172.367 329.241 173.07 328.785C173.78 328.329 174.613 328.102 175.57 328.102ZM175.551 329.43C174.685 329.43 173.995 329.713 173.48 330.279C172.966 330.846 172.66 331.637 172.562 332.652H178.227C178.22 332.014 178.119 331.454 177.924 330.973C177.735 330.484 177.445 330.107 177.055 329.84C176.664 329.566 176.163 329.43 175.551 329.43ZM189.604 336.07C189.604 336.754 189.431 337.33 189.086 337.799C188.747 338.261 188.259 338.609 187.621 338.844C186.99 339.078 186.234 339.195 185.355 339.195C184.607 339.195 183.959 339.137 183.412 339.02C182.865 338.902 182.387 338.736 181.977 338.521V337.027C182.413 337.242 182.934 337.438 183.539 337.613C184.145 337.789 184.763 337.877 185.395 337.877C186.319 337.877 186.99 337.727 187.406 337.428C187.823 337.128 188.031 336.721 188.031 336.207C188.031 335.914 187.947 335.657 187.777 335.436C187.615 335.208 187.338 334.99 186.947 334.781C186.557 334.566 186.016 334.332 185.326 334.078C184.643 333.818 184.05 333.561 183.549 333.307C183.054 333.046 182.67 332.73 182.396 332.359C182.13 331.988 181.996 331.507 181.996 330.914C181.996 330.009 182.361 329.316 183.09 328.834C183.826 328.346 184.789 328.102 185.98 328.102C186.625 328.102 187.227 328.167 187.787 328.297C188.354 328.421 188.881 328.59 189.369 328.805L188.822 330.104C188.38 329.915 187.908 329.755 187.406 329.625C186.905 329.495 186.394 329.43 185.873 329.43C185.124 329.43 184.548 329.553 184.145 329.801C183.747 330.048 183.549 330.387 183.549 330.816C183.549 331.148 183.64 331.422 183.822 331.637C184.011 331.852 184.311 332.053 184.721 332.242C185.131 332.431 185.671 332.652 186.342 332.906C187.012 333.154 187.592 333.411 188.08 333.678C188.568 333.938 188.943 334.257 189.203 334.635C189.47 335.006 189.604 335.484 189.604 336.07ZM195.668 337.867C195.935 337.867 196.208 337.844 196.488 337.799C196.768 337.753 196.996 337.698 197.172 337.633V338.893C196.983 338.977 196.719 339.049 196.381 339.107C196.049 339.166 195.723 339.195 195.404 339.195C194.838 339.195 194.324 339.098 193.861 338.902C193.399 338.701 193.028 338.362 192.748 337.887C192.475 337.411 192.338 336.754 192.338 335.914V329.566H190.814V328.775L192.348 328.141L192.992 325.816H193.969V328.297H197.104V329.566H193.969V335.865C193.969 336.536 194.122 337.037 194.428 337.369C194.74 337.701 195.154 337.867 195.668 337.867ZM50.8047 355.102C51.7161 355.102 52.4974 355.303 53.1484 355.707C53.7995 356.111 54.2975 356.677 54.6426 357.406C54.9876 358.129 55.1602 358.975 55.1602 359.945V360.951H47.7676C47.7871 362.208 48.0996 363.165 48.7051 363.822C49.3105 364.48 50.1634 364.809 51.2637 364.809C51.9408 364.809 52.5397 364.747 53.0605 364.623C53.5814 364.499 54.1217 364.317 54.6816 364.076V365.502C54.1413 365.743 53.6042 365.919 53.0703 366.029C52.543 366.14 51.918 366.195 51.1953 366.195C50.1667 366.195 49.2682 365.987 48.5 365.57C47.7383 365.147 47.1458 364.529 46.7227 363.715C46.2995 362.901 46.0879 361.905 46.0879 360.727C46.0879 359.574 46.2799 358.578 46.6641 357.738C47.0547 356.892 47.6016 356.241 48.3047 355.785C49.0143 355.329 49.8477 355.102 50.8047 355.102ZM50.7852 356.43C49.9193 356.43 49.2292 356.713 48.7148 357.279C48.2005 357.846 47.8945 358.637 47.7969 359.652H53.4609C53.4544 359.014 53.3535 358.454 53.1582 357.973C52.9694 357.484 52.6797 357.107 52.2891 356.84C51.8984 356.566 51.3971 356.43 50.7852 356.43ZM59.5449 366H57.9141V350.805H59.5449V366ZM67.0938 355.102C68.0052 355.102 68.7865 355.303 69.4375 355.707C70.0885 356.111 70.5866 356.677 70.9316 357.406C71.2767 358.129 71.4492 358.975 71.4492 359.945V360.951H64.0566C64.0762 362.208 64.3887 363.165 64.9941 363.822C65.5996 364.48 66.4525 364.809 67.5527 364.809C68.2298 364.809 68.8288 364.747 69.3496 364.623C69.8704 364.499 70.4108 364.317 70.9707 364.076V365.502C70.4303 365.743 69.8932 365.919 69.3594 366.029C68.832 366.14 68.207 366.195 67.4844 366.195C66.4557 366.195 65.5573 365.987 64.7891 365.57C64.0273 365.147 63.4349 364.529 63.0117 363.715C62.5885 362.901 62.377 361.905 62.377 360.727C62.377 359.574 62.569 358.578 62.9531 357.738C63.3438 356.892 63.8906 356.241 64.5938 355.785C65.3034 355.329 66.1367 355.102 67.0938 355.102ZM67.0742 356.43C66.2083 356.43 65.5182 356.713 65.0039 357.279C64.4896 357.846 64.1836 358.637 64.0859 359.652H69.75C69.7435 359.014 69.6426 358.454 69.4473 357.973C69.2585 357.484 68.9688 357.107 68.5781 356.84C68.1875 356.566 67.6862 356.43 67.0742 356.43ZM85.8242 355.102C87.0026 355.102 87.8913 355.411 88.4902 356.029C89.0892 356.641 89.3887 357.628 89.3887 358.988V366H87.7871V359.066C87.7871 358.201 87.5983 357.553 87.2207 357.123C86.8496 356.687 86.2962 356.469 85.5605 356.469C84.5254 356.469 83.7734 356.768 83.3047 357.367C82.8359 357.966 82.6016 358.848 82.6016 360.014V366H80.9902V359.066C80.9902 358.487 80.9056 358.005 80.7363 357.621C80.5736 357.237 80.3262 356.951 79.9941 356.762C79.6686 356.566 79.2552 356.469 78.7539 356.469C78.0443 356.469 77.4746 356.615 77.0449 356.908C76.6152 357.201 76.3027 357.637 76.1074 358.217C75.9186 358.79 75.8242 359.496 75.8242 360.336V366H74.2031V355.297H75.5117L75.7559 356.811H75.8438C76.0586 356.439 76.3288 356.127 76.6543 355.873C76.9798 355.619 77.3444 355.427 77.748 355.297C78.1517 355.167 78.5814 355.102 79.0371 355.102C79.8509 355.102 80.5312 355.255 81.0781 355.561C81.6315 355.86 82.0319 356.319 82.2793 356.938H82.3672C82.7188 356.319 83.2005 355.86 83.8125 355.561C84.4245 355.255 85.0951 355.102 85.8242 355.102ZM96.8398 355.102C97.7513 355.102 98.5326 355.303 99.1836 355.707C99.8346 356.111 100.333 356.677 100.678 357.406C101.023 358.129 101.195 358.975 101.195 359.945V360.951H93.8027C93.8223 362.208 94.1348 363.165 94.7402 363.822C95.3457 364.48 96.1986 364.809 97.2988 364.809C97.9759 364.809 98.5749 364.747 99.0957 364.623C99.6165 364.499 100.157 364.317 100.717 364.076V365.502C100.176 365.743 99.6393 365.919 99.1055 366.029C98.5781 366.14 97.9531 366.195 97.2305 366.195C96.2018 366.195 95.3034 365.987 94.5352 365.57C93.7734 365.147 93.181 364.529 92.7578 363.715C92.3346 362.901 92.123 361.905 92.123 360.727C92.123 359.574 92.3151 358.578 92.6992 357.738C93.0898 356.892 93.6367 356.241 94.3398 355.785C95.0495 355.329 95.8828 355.102 96.8398 355.102ZM96.8203 356.43C95.9544 356.43 95.2643 356.713 94.75 357.279C94.2357 357.846 93.9297 358.637 93.832 359.652H99.4961C99.4896 359.014 99.3887 358.454 99.1934 357.973C99.0046 357.484 98.7148 357.107 98.3242 356.84C97.9336 356.566 97.4323 356.43 96.8203 356.43ZM109.018 355.102C110.287 355.102 111.247 355.414 111.898 356.039C112.549 356.658 112.875 357.654 112.875 359.027V366H111.273V359.135C111.273 358.243 111.068 357.576 110.658 357.133C110.255 356.69 109.633 356.469 108.793 356.469C107.608 356.469 106.775 356.804 106.293 357.475C105.811 358.145 105.57 359.118 105.57 360.395V366H103.949V355.297H105.258L105.502 356.84H105.59C105.818 356.462 106.107 356.146 106.459 355.893C106.811 355.632 107.204 355.437 107.641 355.307C108.077 355.17 108.536 355.102 109.018 355.102ZM119.672 364.867C119.939 364.867 120.212 364.844 120.492 364.799C120.772 364.753 121 364.698 121.176 364.633V365.893C120.987 365.977 120.723 366.049 120.385 366.107C120.053 366.166 119.727 366.195 119.408 366.195C118.842 366.195 118.327 366.098 117.865 365.902C117.403 365.701 117.032 365.362 116.752 364.887C116.479 364.411 116.342 363.754 116.342 362.914V356.566H114.818V355.775L116.352 355.141L116.996 352.816H117.973V355.297H121.107V356.566H117.973V362.865C117.973 363.536 118.126 364.037 118.432 364.369C118.744 364.701 119.158 364.867 119.672 364.867ZM132.182 355.297V366H130.854L130.619 364.496H130.531C130.31 364.867 130.023 365.18 129.672 365.434C129.32 365.688 128.923 365.876 128.48 366C128.044 366.13 127.579 366.195 127.084 366.195C126.238 366.195 125.528 366.059 124.955 365.785C124.382 365.512 123.949 365.089 123.656 364.516C123.37 363.943 123.227 363.207 123.227 362.309V355.297H124.867V362.191C124.867 363.083 125.069 363.751 125.473 364.193C125.876 364.63 126.492 364.848 127.318 364.848C128.113 364.848 128.744 364.698 129.213 364.398C129.688 364.099 130.03 363.66 130.238 363.08C130.447 362.494 130.551 361.778 130.551 360.932V355.297H132.182ZM147.23 355.102C148.409 355.102 149.298 355.411 149.896 356.029C150.495 356.641 150.795 357.628 150.795 358.988V366H149.193V359.066C149.193 358.201 149.005 357.553 148.627 357.123C148.256 356.687 147.702 356.469 146.967 356.469C145.932 356.469 145.18 356.768 144.711 357.367C144.242 357.966 144.008 358.848 144.008 360.014V366H142.396V359.066C142.396 358.487 142.312 358.005 142.143 357.621C141.98 357.237 141.732 356.951 141.4 356.762C141.075 356.566 140.661 356.469 140.16 356.469C139.451 356.469 138.881 356.615 138.451 356.908C138.021 357.201 137.709 357.637 137.514 358.217C137.325 358.79 137.23 359.496 137.23 360.336V366H135.609V355.297H136.918L137.162 356.811H137.25C137.465 356.439 137.735 356.127 138.061 355.873C138.386 355.619 138.751 355.427 139.154 355.297C139.558 355.167 139.988 355.102 140.443 355.102C141.257 355.102 141.938 355.255 142.484 355.561C143.038 355.86 143.438 356.319 143.686 356.938H143.773C144.125 356.319 144.607 355.86 145.219 355.561C145.831 355.255 146.501 355.102 147.23 355.102ZM160.951 366H159.32V350.805H160.951V366ZM166 355.297V366H164.379V355.297H166ZM165.209 351.293C165.476 351.293 165.704 351.381 165.893 351.557C166.088 351.726 166.186 351.993 166.186 352.357C166.186 352.715 166.088 352.982 165.893 353.158C165.704 353.334 165.476 353.422 165.209 353.422C164.929 353.422 164.695 353.334 164.506 353.158C164.324 352.982 164.232 352.715 164.232 352.357C164.232 351.993 164.324 351.726 164.506 351.557C164.695 351.381 164.929 351.293 165.209 351.293ZM172.426 370.805C171.02 370.805 169.936 370.541 169.174 370.014C168.412 369.493 168.031 368.76 168.031 367.816C168.031 367.146 168.243 366.573 168.666 366.098C169.096 365.622 169.688 365.307 170.443 365.15C170.163 365.02 169.923 364.825 169.721 364.564C169.525 364.304 169.428 364.005 169.428 363.666C169.428 363.275 169.535 362.934 169.75 362.641C169.971 362.341 170.307 362.055 170.756 361.781C170.196 361.553 169.74 361.169 169.389 360.629C169.044 360.082 168.871 359.447 168.871 358.725C168.871 357.956 169.031 357.302 169.35 356.762C169.669 356.215 170.131 355.798 170.736 355.512C171.342 355.225 172.074 355.082 172.934 355.082C173.122 355.082 173.311 355.092 173.5 355.111C173.695 355.124 173.881 355.147 174.057 355.18C174.232 355.206 174.385 355.238 174.516 355.277H178.188V356.322L176.215 356.566C176.41 356.82 176.573 357.126 176.703 357.484C176.833 357.842 176.898 358.24 176.898 358.676C176.898 359.743 176.537 360.593 175.814 361.225C175.092 361.85 174.099 362.162 172.836 362.162C172.536 362.162 172.23 362.136 171.918 362.084C171.599 362.26 171.355 362.455 171.186 362.67C171.023 362.885 170.941 363.132 170.941 363.412C170.941 363.62 171.003 363.786 171.127 363.91C171.257 364.034 171.443 364.125 171.684 364.184C171.924 364.236 172.214 364.262 172.553 364.262H174.438C175.603 364.262 176.495 364.506 177.113 364.994C177.738 365.482 178.051 366.195 178.051 367.133C178.051 368.318 177.569 369.226 176.605 369.857C175.642 370.489 174.249 370.805 172.426 370.805ZM172.475 369.535C173.36 369.535 174.092 369.444 174.672 369.262C175.258 369.086 175.694 368.829 175.98 368.49C176.273 368.158 176.42 367.761 176.42 367.299C176.42 366.869 176.322 366.544 176.127 366.322C175.932 366.107 175.645 365.964 175.268 365.893C174.89 365.814 174.428 365.775 173.881 365.775H172.025C171.544 365.775 171.124 365.85 170.766 366C170.408 366.15 170.131 366.371 169.936 366.664C169.747 366.957 169.652 367.322 169.652 367.758C169.652 368.337 169.896 368.777 170.385 369.076C170.873 369.382 171.57 369.535 172.475 369.535ZM172.895 360.98C173.669 360.98 174.252 360.785 174.643 360.395C175.033 360.004 175.229 359.434 175.229 358.686C175.229 357.885 175.03 357.286 174.633 356.889C174.236 356.485 173.65 356.283 172.875 356.283C172.133 356.283 171.56 356.492 171.156 356.908C170.759 357.318 170.561 357.921 170.561 358.715C170.561 359.444 170.762 360.004 171.166 360.395C171.57 360.785 172.146 360.98 172.895 360.98ZM189.135 355.297V366H187.807L187.572 364.496H187.484C187.263 364.867 186.977 365.18 186.625 365.434C186.273 365.688 185.876 365.876 185.434 366C184.997 366.13 184.532 366.195 184.037 366.195C183.191 366.195 182.481 366.059 181.908 365.785C181.335 365.512 180.902 365.089 180.609 364.516C180.323 363.943 180.18 363.207 180.18 362.309V355.297H181.82V362.191C181.82 363.083 182.022 363.751 182.426 364.193C182.829 364.63 183.445 364.848 184.271 364.848C185.066 364.848 185.697 364.698 186.166 364.398C186.641 364.099 186.983 363.66 187.191 363.08C187.4 362.494 187.504 361.778 187.504 360.932V355.297H189.135ZM194.193 366H192.562V350.805H194.193V366ZM201.625 355.121C202.901 355.121 203.848 355.408 204.467 355.98C205.085 356.553 205.395 357.468 205.395 358.725V366H204.213L203.9 364.418H203.822C203.523 364.809 203.21 365.137 202.885 365.404C202.559 365.665 202.182 365.863 201.752 366C201.329 366.13 200.808 366.195 200.189 366.195C199.538 366.195 198.959 366.081 198.451 365.854C197.95 365.626 197.553 365.281 197.26 364.818C196.973 364.356 196.83 363.77 196.83 363.061C196.83 361.993 197.253 361.173 198.1 360.6C198.946 360.027 200.235 359.714 201.967 359.662L203.812 359.584V358.93C203.812 358.005 203.614 357.357 203.217 356.986C202.82 356.615 202.26 356.43 201.537 356.43C200.977 356.43 200.443 356.511 199.936 356.674C199.428 356.837 198.946 357.029 198.49 357.25L197.992 356.02C198.474 355.772 199.027 355.561 199.652 355.385C200.277 355.209 200.935 355.121 201.625 355.121ZM203.793 360.727L202.162 360.795C200.827 360.847 199.887 361.065 199.34 361.449C198.793 361.833 198.52 362.377 198.52 363.08C198.52 363.692 198.705 364.145 199.076 364.438C199.447 364.73 199.939 364.877 200.551 364.877C201.501 364.877 202.279 364.613 202.885 364.086C203.49 363.559 203.793 362.768 203.793 361.713V360.727Z" fill="white"/>
<path d="M124 391V398C124 399.657 125.343 401 127 401H134V416C134 417.657 132.657 419 131 419H120.5V413.108C121.135 412.054 121.5 410.82 121.5 409.5C121.5 405.634 118.366 402.5 114.5 402.5C113.619 402.5 112.776 402.663 112 402.96V394C112 392.343 113.343 391 115 391H124ZM117.5 415.549C118.046 415.277 118.55 414.934 119 414.531V419.05C119 419.791 118.189 420.247 117.556 419.861L114.5 418L111.444 419.861C110.811 420.247 110 419.791 110 419.05V414.531C110.584 415.054 111.26 415.477 112 415.772C112.77 416.079 113.61 416.249 114.489 416.25L114.491 416.25C114.494 416.25 114.497 416.25 114.5 416.25C114.503 416.25 114.506 416.25 114.509 416.25L114.511 416.25C115.585 416.248 116.599 415.996 117.5 415.549ZM114.5 415C113.6 415 112.75 414.784 112 414.4C110.219 413.49 109 411.637 109 409.5C109 407.363 110.219 405.51 112 404.6C112.75 404.216 113.6 404 114.5 404C117.538 404 120 406.462 120 409.5C120 410.53 119.717 411.493 119.225 412.317C118.938 412.797 118.58 413.229 118.166 413.6C117.193 414.471 115.908 415 114.5 415ZM126 391.117V398C126 398.552 126.448 399 127 399H133.883C133.744 398.516 133.484 398.07 133.121 397.707L127.293 391.879C126.93 391.516 126.484 391.256 126 391.117Z" fill="white"/>
<defs>
<filter id="filter0_d_1_2517" x="36.2314" y="29.4438" width="170.768" height="170.767" filterUnits="userSpaceOnUse" color-interpolation-filters="sRGB">
<feFlood flood-opacity="0" result="BackgroundImageFix"/>
<feColorMatrix in="SourceAlpha" type="matrix" values="0 0 0 0 0 0 0 0 0 0 0 0 0 0 0 0 0 0 127 0" result="hardAlpha"/>
<feOffset dy="4"/>
<feGaussianBlur stdDeviation="2"/>
<feComposite in2="hardAlpha" operator="out"/>
<feColorMatrix type="matrix" values="0 0 0 0 0 0 0 0 0 0 0 0 0 0 0 0 0 0 0.25 0"/>
<feBlend mode="normal" in2="BackgroundImageFix" result="effect1_dropShadow_1_2517"/>
<feBlend mode="normal" in="SourceGraphic" in2="effect1_dropShadow_1_2517" result="shape"/>
</filter>
<filter id="filter1_d_1_2517" x="91" y="379" width="61" height="61" filterUnits="userSpaceOnUse" color-interpolation-filters="sRGB">
<feFlood flood-opacity="0" result="BackgroundImageFix"/>
<feColorMatrix in="SourceAlpha" type="matrix" values="0 0 0 0 0 0 0 0 0 0 0 0 0 0 0 0 0 0 127 0" result="hardAlpha"/>
<feOffset dy="4"/>
<feGaussianBlur stdDeviation="2"/>
<feComposite in2="hardAlpha" operator="out"/>
<feColorMatrix type="matrix" values="0 0 0 0 0 0 0 0 0 0 0 0 0 0 0 0 0 0 0.25 0"/>
<feBlend mode="normal" in2="BackgroundImageFix" result="effect1_dropShadow_1_2517"/>
<feBlend mode="normal" in="SourceGraphic" in2="effect1_dropShadow_1_2517" result="shape"/>
</filter>
<filter id="filter2_d_1_2517" x="84" y="372" width="75" height="75" filterUnits="userSpaceOnUse" color-interpolation-filters="sRGB">
<feFlood flood-opacity="0" result="BackgroundImageFix"/>
<feColorMatrix in="SourceAlpha" type="matrix" values="0 0 0 0 0 0 0 0 0 0 0 0 0 0 0 0 0 0 127 0" result="hardAlpha"/>
<feOffset dy="4"/>
<feGaussianBlur stdDeviation="2"/>
<feComposite in2="hardAlpha" operator="out"/>
<feColorMatrix type="matrix" values="0 0 0 0 0 0 0 0 0 0 0 0 0 0 0 0 0 0 0.25 0"/>
<feBlend mode="normal" in2="BackgroundImageFix" result="effect1_dropShadow_1_2517"/>
<feBlend mode="normal" in="SourceGraphic" in2="effect1_dropShadow_1_2517" result="shape"/>
</filter>
</defs>
</svg>
